<?xml version="1.0" encoding="utf-8"?>
<!-- Generator: Adobe Illustrator 27.0.0, SVG Export Plug-In . SVG Version: 6.00 Build 0)  -->
<svg version="1.1" id="Layer_1" xmlns="http://www.w3.org/2000/svg" xmlns:xlink="http://www.w3.org/1999/xlink" x="0px" y="0px"
	 width="360px" height="360px" viewBox="0 0 360 360" enable-background="new 0 0 360 360" xml:space="preserve">
<path fill-rule="evenodd" clip-rule="evenodd" fill="#B4DFFB" d="M242.8,91.2l21.4-40.4c4-7.6,0.4-13.6-8.2-13.6H104
	c-8.6,0-12.2,6-8.2,13.6l21.4,40.4C64.6,115,28,167.9,28,229.7c0,36.4,12.6,69.8,34.4,96.2h235.2c21.8-26.2,34.4-59.8,34.4-96.2
	C332,167.9,295.4,115,242.8,91.2z"/>
<path fill-rule="evenodd" clip-rule="evenodd" fill="#5EA7FF" d="M60.4,153.7c-14.2,21.8-22.2,48.2-22.2,76
	c0,32.4,10.6,62.4,28.8,86.2h225.4c18.2-23.8,28.8-53.8,28.8-86.2c0-27.8-8.2-54.2-22.2-76C299,153.7,60.4,153.7,60.4,153.7z"/>
<circle fill="none" stroke="#B4DFFB" stroke-width="2" stroke-linecap="round" cx="111.7" cy="196.7" r="15.2"/>
<circle fill="none" stroke="#5EA7FF" stroke-width="2" stroke-linecap="round" cx="187.6" cy="120.7" r="12.6"/>
<g>
	<path fill-rule="evenodd" clip-rule="evenodd" fill="#FFAF40" d="M268.8,241.3L246,254.6c-9-13.8-28.2-23.4-50.6-23.4
		c-24.8,0-46.2,11.6-53.2,27.8c7,16.2,28.4,27.8,53.2,27.8c22.4,0,42-9.5,50.8-23.2l22.7,13.2v-35.5H268.8z"/>
	<circle fill-rule="evenodd" clip-rule="evenodd" fill="#595959" cx="166.7" cy="259.1" r="5"/>
</g>
</svg>
