<?xml version="1.0" encoding="utf-8"?>
<!-- Generator: Adobe Illustrator 27.0.0, SVG Export Plug-In . SVG Version: 6.00 Build 0)  -->
<svg version="1.1" id="Layer_1" xmlns="http://www.w3.org/2000/svg" xmlns:xlink="http://www.w3.org/1999/xlink" x="0px" y="0px"
	 viewBox="0 0 360 360" style="enable-background:new 0 0 360 360;" xml:space="preserve">
<style type="text/css">
	.st0{fill-rule:evenodd;clip-rule:evenodd;fill:#80D25B;}
	.st1{fill-rule:evenodd;clip-rule:evenodd;fill:#FCFFFA;}
	.st2{fill:#80D25B;}
</style>
<path class="st0" d="M260.3,116.8c0-42.9-36.3-77.7-81-77.7s-81,34.8-81,77.7H260.3z"/>
<rect x="213.4" y="66.9" class="st1" width="11" height="11"/>
<rect x="135.6" y="66.9" class="st1" width="11" height="11"/>
<path class="st2" d="M156.7,51.5l-16.6-27.8c-2.3-3.9-7.5-5.2-11.5-2.9c-3.9,2.3-5.2,7.5-2.9,11.5L142.4,60
	c2.3,3.9,7.5,5.2,11.5,2.9C157.7,60.6,159,55.4,156.7,51.5z M217.7,60l16.6-27.7c2.3-3.9,1.1-9-2.9-11.5c-3.9-2.3-9-1.1-11.5,2.9
	l-16.6,27.7c-2.3,3.9-1.1,9,2.9,11.5C210.2,65.3,215.4,64,217.7,60z"/>
<path class="st0" d="M132.9,283.3h-12c-11.8,0-21.2-9.5-21.2-21.2V128h160.2v134.1c0,11.8-9.6,21.2-21.2,21.2h-11.2V322
	c0,9.2-7.5,16.8-16.8,16.8c-9.2,0-16.8-7.5-16.8-16.8v-38.7h-27.5V322c0,9.2-7.5,16.8-16.8,16.8c-9.2,0-16.8-7.5-16.8-16.8v-38.7
	H132.9z M271.3,149.8c0-9,7.3-16.3,16.3-16.3l0,0c9,0,16.3,7.3,16.3,16.3v89.3c0,9-7.3,16.3-16.3,16.3l0,0c-9,0-16.3-7.3-16.3-16.3
	V149.8z M54.9,149.8c0-9,7.3-16.3,16.3-16.3l0,0c9,0,16.3,7.3,16.3,16.3v89.3c0,9-7.3,16.3-16.3,16.3l0,0c-9,0-16.3-7.3-16.3-16.3
	V149.8z"/>
</svg>
