<?xml version="1.0" encoding="utf-8"?>
<!-- Generator: Adobe Illustrator 27.0.0, SVG Export Plug-In . SVG Version: 6.00 Build 0)  -->
<svg version="1.1" id="Layer_1" xmlns="http://www.w3.org/2000/svg" xmlns:xlink="http://www.w3.org/1999/xlink" x="0px" y="0px"
	 width="360px" height="360px" viewBox="0 0 360 360" enable-background="new 0 0 360 360" xml:space="preserve">
<path fill="#B18500" d="M180.1,337c22.1,0,40-17.9,40-40s-17.9-40-40-40s-40,17.9-40,40S158,337,180.1,337z"/>
<path fill-rule="evenodd" clip-rule="evenodd" fill="#FFBF00" d="M279.1,161.3v57.3c0,10,6.5,18.5,15.6,21.4h0.8
	c15.7,0,28.5,12.8,28.5,28.5S311.2,297,295.5,297h-231C48.8,297,36,284.2,36,268.5S48.8,240,64.5,240h1c9-2.9,15.6-11.4,15.6-21.4
	v-57.3c0-46.3,31.8-85.2,74.8-96c-2.5-4.3-3.9-9.2-3.9-14.2c0-15.5,12.6-28.1,28.1-28.1s28.1,12.6,28.1,28.1c0,5-1.3,9.9-3.9,14.2
	C247.3,76.1,279.1,115,279.1,161.3z M168.9,51.1c0,6.2,5,11.2,11.2,11.2s11.2-5,11.2-11.2s-5-11.2-11.2-11.2
	C173.9,39.8,168.9,44.9,168.9,51.1z"/>
<path fill="#FEDE7E" d="M64.5,240h231c15.7,0,28.5,12.8,28.5,28.5l0,0c0,15.7-12.8,28.5-28.5,28.5h-231C48.8,297,36,284.2,36,268.5
	l0,0C36,252.8,48.8,240,64.5,240z"/>
</svg>
