<?xml version="1.0" encoding="utf-8"?>
<!-- Generator: Adobe Illustrator 27.0.0, SVG Export Plug-In . SVG Version: 6.00 Build 0)  -->
<svg version="1.1" id="Layer_1" xmlns="http://www.w3.org/2000/svg" xmlns:xlink="http://www.w3.org/1999/xlink" x="0px" y="0px"
	 viewBox="0 0 360 360" style="enable-background:new 0 0 360 360;" xml:space="preserve">
<style type="text/css">
	.st0{fill:#FF8EEC;}
	.st1{fill:#FCD2FC;}
	.st2{fill:#F7941D;}
</style>
<path class="st0" d="M94.6,83.8H73.4v42.6h21.4V83.8H94.6z"/>
<path class="st0" d="M286.6,83.8h-21.4v42.6h21.4V83.8z"/>
<path class="st0" d="M190.6,83.8h-21.4v42.6h21.4V83.8z"/>
<path d="M329.4,211.8H30.6c-5.9,0-10.6,4.7-10.6,10.6v85.4c0,5.9,4.7,10.6,10.6,10.6h298.6c5.9,0,10.6-4.7,10.6-10.6v-85.4
	C340,216.7,335.3,211.8,329.4,211.8z"/>
<path class="st1" d="M297.4,115.8H62.6c-5.9,0-10.6,4.7-10.6,10.6v74.8c0,5.9,4.7,10.6,10.6,10.6h234.6c5.9,0,10.6-4.7,10.6-10.6
	v-74.6C308,120.7,303.3,115.8,297.4,115.8z"/>
<path class="st0" d="M152.1,156.6c27.8,0,27.8,25.2,55.4,25.2c27.8,0,27.8-25.2,55.4-25.2c23.7,0,27.1,18.3,44.8,23.7v-53.8
	c0-2.8-1.2-5.5-3.1-7.6c-1.9-2-4.7-3.1-7.6-3.1H62.6c-2.8,0-5.5,1.2-7.6,3.1c-2,1.9-3.1,4.7-3.1,7.6v32
	c17.7,5.4,21.4,23.7,44.8,23.7C124.4,181.7,124.4,156.6,152.1,156.6z"/>
<path class="st0" d="M123,253.4c28.4,0,28.4,23.6,56.8,23.6s28.5-23.6,56.8-23.6c28.4,0,28.5,23.4,57,23.4
	c24.3,0,27.9-17.2,46.3-22.1v-32.3c0-2.8-1.2-5.5-3.1-7.6c-2-2-4.7-3.1-7.6-3.1H30.6c-2.8,0-5.5,1.2-7.6,3.1c-2,2-3.1,4.7-3.1,7.6
	v32c18.3,5,21.9,22.1,46.2,22.1C94.6,276.9,94.6,253.4,123,253.4z"/>
<path class="st1" d="M293.7,276.9c-28.4,0-28.4-23.4-57-23.4s-28.4,23.4-56.7,23.4s-28.4-23.6-56.8-23.6s-28.4,23.6-57,23.6
	c-24.3,0-27.9-17.2-46.2-22.4v53.4c0,2.8,1.2,5.5,3.1,7.6c2,2,4.7,3.1,7.6,3.1h298.6c2.8,0,5.5-1.2,7.6-3.1c2-2,3.1-4.7,3.1-7.6
	v-53.4C321.7,259.8,318.1,276.9,293.7,276.9z"/>
<path class="st2" d="M90.5,56.5c-0.4,0.9-1,1.7-1.9,2c-0.9,0.4-1.9,0.4-2.8,0.1c-0.4-0.3-0.8-0.6-1-1.2c-0.3-0.4-0.4-0.9-0.4-1.4
	s0.1-1,0.4-1.4s0.6-0.8,1-1.2c1.3-0.9,2.2-2.3,2.4-4c0.3-1.5,0-3.2-0.9-4.5c-2.2-2.4-3.3-4-3.3-4s-23.4,32,0,32
	c13.8,0,11.8-10.6,7.6-19.5L90.5,56.5z"/>
<path class="st2" d="M282.5,56.5c-0.4,0.9-1,1.7-1.9,2s-1.9,0.4-2.8,0.1c-0.4-0.3-0.8-0.6-1-1.2c-0.3-0.4-0.4-0.9-0.4-1.4
	s0.1-1,0.4-1.4c0.3-0.4,0.6-0.8,1-1.2c1.3-0.9,2.2-2.3,2.4-4c0.3-1.5,0-3.2-0.9-4.5c-2.2-2.4-3.3-4-3.3-4s-23.4,32,0,32
	c13.8,0,11.8-10.6,7.6-19.5L282.5,56.5z"/>
<path class="st2" d="M186.5,56.5c-0.4,0.9-1,1.7-1.9,2s-1.9,0.4-2.8,0.1c-0.4-0.3-0.8-0.6-1-1.2c-0.3-0.4-0.4-0.9-0.4-1.4
	s0.1-1,0.4-1.4s0.6-0.8,1-1.2c1.3-0.9,2.2-2.3,2.4-4c0.3-1.5,0-3.2-0.9-4.5c-2.2-2.4-3.3-4-3.3-4s-23.4,32,0,32
	c13.8,0,11.8-10.6,7.6-19.5L186.5,56.5z"/>
</svg>
