<?xml version="1.0" encoding="utf-8"?>
<!-- Generator: Adobe Illustrator 27.0.0, SVG Export Plug-In . SVG Version: 6.00 Build 0)  -->
<svg version="1.1" id="Layer_1" xmlns="http://www.w3.org/2000/svg" xmlns:xlink="http://www.w3.org/1999/xlink" x="0px" y="0px"
	 width="360px" height="360px" viewBox="0 0 360 360" enable-background="new 0 0 360 360" xml:space="preserve">
<path fill="#5359FD" d="M335.3,232c23.1-23.1,23.1-60.7,0-83.8s-60.7-23.1-83.8,0l-38,12.3l-3.8,29.6l5.6,31.4l36.3,10.5
	C274.7,255.2,312.2,255.2,335.3,232z"/>
<path fill="#5359FD" d="M223.9,10.7c3.5,4.1,6.7,8.4,9.6,12.8c8.1,12.2,14.3,25.8,18.2,40.2l9.9,9.9c17.8,17.8,17.4,47.1-0.4,64.9
	l-51.6,51.6l-15.3,10.5l8.9-16.9c-46.9-46.9-52.4-110.4-16.1-161.5c2.8-3.9,5.8-7.7,8.9-11.3l0,0C204.3,5.1,215.5,5,223.9,10.7z"/>
<path fill="#FF8E3A" d="M274.1,209.9c-10.7-10.7-10.7-28,0-38.7s28-10.7,38.7,0s10.7,28,0,38.7C302.1,220.5,284.7,220.5,274.1,209.9
	z M216.1,80.5c0.8,0.8,1.5,1.9,2,3s0.7,2.3,0.7,3.5s-0.2,2.4-0.7,3.5s-1.1,2.1-2,3c-0.8,0.8-1.9,1.5-3,2s-2.3,0.7-3.5,0.7
	s-2.4-0.2-3.5-0.7s-2.1-1.1-3-2c-3.6-3.6-3.6-9.3,0-12.9C206.7,77,212.5,77,216.1,80.5z M216,41c3.6,3.6,3.6,9.3,0,12.9
	c-3.6,3.6-9.3,3.6-12.9,0c-0.8-0.8-1.5-1.9-2-3s-0.7-2.3-0.7-3.5s0.2-2.4,0.7-3.5s1.1-2.1,2-3c0.8-0.8,1.9-1.5,3-2s2.3-0.7,3.5-0.7
	s2.4,0.2,3.5,0.7C214.2,39.5,215.2,40.2,216,41z M241.9,106.3c0.8,0.8,1.5,1.9,2,3s0.7,2.3,0.7,3.5s-0.2,2.4-0.7,3.5s-1.1,2.1-2,3
	c-3.6,3.6-9.3,3.6-12.9,0s-3.6-9.3,0-12.9c0.8-0.8,1.9-1.5,3-2s2.3-0.7,3.5-0.7s2.4,0.2,3.5,0.7S241,105.5,241.9,106.3z
	 M216.1,132.1c0.8,0.8,1.5,1.9,2,3s0.7,2.3,0.7,3.5s-0.2,2.4-0.7,3.5s-1.1,2.1-2,3c-3.6,3.6-9.3,3.6-12.9,0s-3.6-9.3,0-12.9
	C206.7,128.5,212.5,128.5,216.1,132.1z"/>
<path fill="#5359FD" d="M232,251.5l-10.5-36.2l-31.4-5.6l0,0l10.5-15.3l-16.9,8.9c-46.9-46.9-110.4-52.4-161.5-16.1
	c-3.9,2.8-7.7,5.8-11.3,8.9l0,0c-5.8,8.3-5.9,19.5-0.2,27.8c4.1,3.5,8.4,6.7,12.8,9.6c12.2,8.1,25.8,14.3,40.2,18.2l9.9,9.9
	c17.8,17.8,47.1,17.4,64.9-0.4l9.6-9.6c-23.1,23.1-23.1,60.6,0,83.8c23.1,23.1,60.7,23.1,83.8,0C255.2,312.2,255.2,274.7,232,251.5z
	"/>
<path fill="#FF8E3A" d="M209.9,312.8c-10.7,10.7-28,10.7-38.7,0s-10.7-28,0-38.7s28-10.7,38.7,0
	C220.5,284.7,220.5,302.1,209.9,312.8z M80.5,203.2c0.8-0.8,1.9-1.5,3-2s2.3-0.7,3.5-0.7s2.4,0.2,3.5,0.7s2.1,1.1,3,2
	c3.6,3.6,3.6,9.3,0,12.9c-3.6,3.6-9.3,3.6-12.9,0c-0.8-0.8-1.5-1.9-2-3s-0.7-2.3-0.7-3.5s0.2-2.4,0.7-3.5
	C79,205,79.7,204,80.5,203.2z M41,203.1c0.8-0.8,1.9-1.5,3-2s2.3-0.7,3.5-0.7s2.4,0.2,3.5,0.7s2.1,1.1,3,2c3.6,3.6,3.6,9.3,0,12.9
	c-3.6,3.6-9.3,3.6-12.9,0C37.5,212.5,37.5,206.7,41,203.1z M106.3,229c0.8-0.8,1.9-1.5,3-2s2.3-0.7,3.5-0.7s2.4,0.2,3.5,0.7
	s2.1,1.1,3,2c3.6,3.6,3.6,9.3,0,12.9c-3.6,3.6-9.3,3.6-12.9,0c-0.8-0.8-1.5-1.9-2-3s-0.7-2.3-0.7-3.5s0.2-2.4,0.7-3.5
	C104.8,230.8,105.5,229.8,106.3,229z M132.1,203.2c3.6-3.6,9.3-3.6,12.9,0s3.6,9.3,0,12.9c-0.8,0.8-1.9,1.5-3,2s-2.3,0.7-3.5,0.7
	s-2.4-0.2-3.5-0.7s-2.1-1.1-3-2c-0.8-0.8-1.5-1.9-2-3s-0.7-2.3-0.7-3.5s0.2-2.4,0.7-3.5S131.3,204,132.1,203.2z"/>
<path fill="#FF8E3A" d="M151.8,62.8c3.6-3.6,3.6-9.3,0-12.9s-9.3-3.6-12.9,0C125.6,63.2,118,81.6,118,100.4
	c-0.1,7.3,1.4,14.6,3.6,21.4c-0.4-0.1-0.9-0.4-1.4-0.4c-6.4-2.1-13.1-3.4-20-3.2c-18.8,0-37.1,7.5-50.4,20.8
	c-3.6,3.6-3.6,9.3,0,12.9c3.6,3.6,9.3,3.6,12.9,0c9.8-9.8,23.5-15.5,37.5-15.6c14,0.1,27.7,5.8,37.5,15.6l7.6,7.6
	c3.6,3.6,9.3,3.6,12.9,0c0.3-0.3,0.3-0.5,0.4-0.6c0.3-0.3,0.5-0.3,0.8-0.5c3.5-3.5,3.6-9.3,0-12.9l-7.6-7.6
	c-9.9-9.9-15.6-23.3-15.6-37.5C136.2,86.4,141.9,72.7,151.8,62.8z"/>
<path fill="#FCD2B1" d="M164.8,144.7l90.2,90.2c6.1,6.1,7,15.6,2.5,22.6c-7,4.4-16.5,3.6-22.6-2.5l-90.2-90.2
	c-6.1-6.1-7-15.6-2.5-22.6C149.2,137.8,158.7,138.6,164.8,144.7z"/>
</svg>
