<?xml version="1.0" encoding="utf-8"?>
<!-- Generator: Adobe Illustrator 27.0.0, SVG Export Plug-In . SVG Version: 6.00 Build 0)  -->
<svg version="1.1" id="Layer_1" xmlns="http://www.w3.org/2000/svg" xmlns:xlink="http://www.w3.org/1999/xlink" x="0px" y="0px"
	 viewBox="0 0 360 360" style="enable-background:new 0 0 360 360;" xml:space="preserve">
<style type="text/css">
	.st0{fill-rule:evenodd;clip-rule:evenodd;fill:#FF8EEC;}
	.st1{fill:#FCD2FC;}
	.st2{fill:#FF8EEC;}
	.st3{fill:#FFFFFF;}
</style>
<path class="st0" d="M41.1,255.2V137.7H319v118.4c0,48.4-30.5,78.2-79.2,78.2H120.2C71.8,334.5,41.1,303.9,41.1,255.2z"/>
<path class="st1" d="M41.1,137.7c0.1-9.1,1-27.1,2.4-32.8c7.3-32.6,32.1-53.3,67.7-56.2h137.6c35.3,3,60.4,23.9,67.7,56.2
	c1.4,5.6,2.2,23.8,2.4,32.8C319,137.7,41.1,137.7,41.1,137.7z"/>
<path class="st2" d="M122.9,96.5c6.8,0,11.7-5,11.7-12v-47c0-1.6-0.3-3.2-0.7-4.6c-0.6-1.4-1.4-2.7-2.6-3.9c-1.2-1.2-2.4-2-3.9-2.6
	c-1.4-0.6-3-0.9-4.6-0.9c-6.8,0-11.7,5-11.7,12v47.1C111.3,91.4,116.2,96.5,122.9,96.5z M237,96.5c6.6,0,11.7-5,11.7-12v-47
	c0-1.6-0.3-3.2-0.9-4.6c-0.6-1.4-1.4-2.7-2.6-3.9c-1.2-1.2-2.4-2-3.9-2.6c-1.4-0.6-3-0.9-4.6-0.9c-6.8,0-11.7,5-11.7,12v47.1
	C225.4,91.4,230.3,96.5,237,96.5z"/>
<g>
	<circle class="st3" cx="102.8" cy="195.4" r="15.4"/>
	<circle class="st3" cx="180" cy="195.4" r="15.4"/>
	<circle class="st3" cx="257.2" cy="195.4" r="15.4"/>
	<circle class="st3" cx="102.8" cy="257.2" r="15.4"/>
	<circle class="st3" cx="180" cy="257.2" r="15.4"/>
	<circle class="st3" cx="257.2" cy="257.2" r="15.4"/>
</g>
</svg>
