<?xml version="1.0" encoding="utf-8"?>
<!-- Generator: Adobe Illustrator 27.0.0, SVG Export Plug-In . SVG Version: 6.00 Build 0)  -->
<svg version="1.1" id="Layer_1" xmlns="http://www.w3.org/2000/svg" xmlns:xlink="http://www.w3.org/1999/xlink" x="0px" y="0px"
	 viewBox="0 0 360 360" style="enable-background:new 0 0 360 360;" xml:space="preserve">
<style type="text/css">
	.st0{fill:#FFDAA4;}
	.st1{fill:#FFBE55;}
	.st2{fill:#0E538C;}
	.st3{fill:#2A94F4;}
	.st4{fill:#0B4870;}
	.st5{fill:#99503D;}
	.st6{fill:#FFE3CA;}
	.st7{fill:#FCD2B1;}
</style>
<path class="st0" d="M100.9,80.5c-1-3.6-9-4.1-10.8-7.2c-1.8-3.1,1.7-10.5-0.8-13c-2.5-2.6-9.8,1-13-0.8c-3.1-1.8-3.7-9.9-7.2-10.8
	c-3.4-0.9-8,5.8-11.6,5.8c-3.8,0-8.2-6.7-11.7-5.8c-3.5,1-4.1,9-7.1,10.8c-3.1,1.8-10.5-1.7-13,0.8c-2.6,2.5,1,9.8-0.8,13
	c-1.8,3.1-9.9,3.7-10.8,7.2c-0.9,3.4,5.8,8,5.8,11.6s-6.7,8.2-5.8,11.6c1,3.6,9,4.1,10.8,7.1c1.8,3.1-1.7,10.5,0.8,13
	c2.5,2.6,9.8-1,13,0.8c3.1,1.8,3.7,9.9,7.1,10.8c3.4,0.9,8-5.8,11.7-5.8c3.7,0,8.2,6.7,11.6,5.8c3.6-1,4.1-9,7.2-10.8
	c3.1-1.8,10.5,1.7,13-0.8c2.6-2.5-1-9.8,0.8-13c1.8-3.1,9.9-3.7,10.8-7.1c0.9-3.4-5.8-8-5.8-11.6C95.1,88.5,101.8,84,100.9,80.5z"/>
<path class="st1" d="M86.5,92.2c0,14.7-10.9,26.9-25,28.9c-1.3,0.2-2.7,0.3-4,0.3c-16.1,0-29.1-13-29.1-29.1s13-29.1,29.1-29.1
	c1.3,0,2.8,0.1,4,0.3C75.6,65.3,86.5,77.5,86.5,92.2z"/>
<path class="st2" d="M264.7,104.2c-1.2,2.1-0.8,4.7,0.9,6.4c9.4,8.9,15.3,21.6,15.3,35.6c0,24.6-18,44.9-41.5,48.6L225,195
	c-23.9-3.3-42.5-23.9-42.5-48.7c0-14,5.9-26.6,15.3-35.6c1.7-1.7,2.1-4.3,1-6.3c-3.2-5.9-4.8-12.5-4.6-19.2
	c0.6-20.5,17.8-36.8,38.2-36.5c20.5,0.3,37,17,37,37.5C269.3,92.8,267.6,98.9,264.7,104.2z"/>
<path class="st3" d="M329.8,169.3c-1.2,2.1-0.8,4.7,0.9,6.4c9.4,8.9,15.3,21.6,15.3,35.6c0,24.6-18,44.9-41.5,48.6l-14.3,0.2
	c-23.9-3.3-42.5-23.9-42.5-48.7c0-14,5.9-26.6,15.3-35.6c1.7-1.7,2.1-4.3,1-6.3c-3.2-5.9-4.8-12.5-4.6-19.2
	c0.6-20.5,17.8-36.8,38.2-36.5c20.5,0.4,37,17.1,37,37.6C334.4,157.6,332.9,163.8,329.8,169.3z"/>
<path class="st4" d="M316.6,218l-12.2,12.3v5.6c0,0.1,0,0.2,0,0.3v60.6h-14.3v-68.7h-0.1v-43.7c0-4,3.1-7.1,7.1-7.1
	c4,0,7.1,3.1,7.1,7.1v25.6l2.1-2c2.8-2.9,7.3-2.9,10,0C319.5,210.7,319.5,215.3,316.6,218z"/>
<path class="st4" d="M213.4,151.1l12.2,12.3v5.6c0,0.1,0,0.2,0,0.3v60.6h14.3v-68.7h0.1v-43.8c0-4-3.1-7.1-7.1-7.1s-7.1,3.1-7.1,7.1
	v25.6l-2.1-2c-2.8-2.9-7.3-2.9-10,0C210.5,143.8,210.5,148.4,213.4,151.1z"/>
<path class="st5" d="M303.7,228.1v8.7c0-0.3-0.1-0.5-0.1-0.8L303.7,228.1L303.7,228.1z"/>
<path class="st1" d="M314.6,294.2c-1.3,2.3-3.8,3.8-6.3,3.8H205.2l-61.6-123.6l-0.7-1.4c-0.6-1.2-1.5-2.2-2.7-2.9
	c-1.2-0.7-2.4-1.1-3.8-1.1h100c2.4,0,4.7,1.3,6,3.3l71.9,114.7C315.8,289.1,315.9,291.8,314.6,294.2z"/>
<path class="st6" d="M129.3,174.2v123.6H78.9c-2.4,0-4.7-1.3-6.2-3.4c-1.3-2-1.3-4.7-0.3-6.9L129.3,174.2z M205.2,297.8h-61.6V174.2
	L205.2,297.8z"/>
<path class="st1" d="M142.9,172.8c-0.6-1.2-1.5-2.2-2.7-2.9c-1.2-0.7-2.4-1.1-3.8-1.1l0,0c-1.3,0-2.7,0.4-3.8,1.1
	c-1.2,0.7-2.1,1.7-2.7,2.9l-0.7,1.4v123.6h14.3V174.2L142.9,172.8z"/>
<path class="st7" d="M345.9,304c0.1,0.4,0.1,0.7,0.1,1c0,3.1-2.6,5.7-5.7,5.7H19.5c-0.7,0-1.5-0.2-2.1-0.4c-0.7-0.3-1.3-0.7-1.9-1.3
	c-0.5-0.5-1-1.2-1.3-1.9c-0.3-0.6-0.4-1.3-0.4-2.1c0-0.4,0-0.7,0.1-1c-0.1-0.4-0.1-0.7-0.1-1.1c0-0.7,0.2-1.5,0.4-2.1
	s0.7-1.3,1.3-1.9c0.5-0.5,1.2-1,1.9-1.3c0.7-0.3,1.4-0.4,2.1-0.4h320.8c1.5,0,2.9,0.6,4,1.7s1.7,2.5,1.7,4
	C346,303.4,346,303.7,345.9,304z"/>
</svg>
