<?xml version="1.0" encoding="utf-8"?>
<!-- Generator: Adobe Illustrator 27.0.0, SVG Export Plug-In . SVG Version: 6.00 Build 0)  -->
<svg version="1.1" id="Layer_1" xmlns="http://www.w3.org/2000/svg" xmlns:xlink="http://www.w3.org/1999/xlink" x="0px" y="0px"
	 viewBox="0 0 360 360" style="enable-background:new 0 0 360 360;" xml:space="preserve">
<style type="text/css">
	.st0{fill:#2A94F4;}
	.st1{fill:#CCE9FF;}
</style>
<path class="st0" d="M170,75.9c-83.4,0-150.9,55.9-150.9,124.7c0,33.7,16.2,64.3,42.5,86.8l-29.2,41.1c0,0,36.6,2.1,61.1-20.4
	c22.5,11,48.6,17.3,76.6,17.3c83.4,0,150.9-55.8,150.9-124.7S253.3,75.9,170,75.9z"/>
<path class="st1" d="M300.2,264.1l34.2,48.2c0,0-43.5,2.5-70.8-25.2c-8.3,3.6-17,6.6-25.9,8.7c-12.1,2.9-24.8,4.5-38,4.5
	c-79.2,0-143.5-56.5-143.5-126.3c0-14.6,2.8-28.7,8-41.8C83.8,83,137,47.7,199.6,47.7c79.2,0,143.5,56.5,143.5,126.3
	C343.2,209.3,326.8,241.2,300.2,264.1z"/>
<path class="st0" d="M149.5,184.3c11.3,0,20.5-9.2,20.5-20.5s-9.2-20.5-20.5-20.5s-20.5,9.2-20.5,20.5S138.1,184.3,149.5,184.3z"/>
<path class="st0" d="M205.1,184.3c11.3,0,20.5-9.2,20.5-20.5s-9.2-20.5-20.5-20.5s-20.5,9.2-20.5,20.5S193.7,184.3,205.1,184.3z"/>
<path class="st0" d="M260.7,184.3c11.3,0,20.5-9.2,20.5-20.5s-9.2-20.5-20.5-20.5c-11.3,0-20.5,9.2-20.5,20.5
	S249.3,184.3,260.7,184.3z"/>
</svg>
