<?xml version="1.0" encoding="utf-8"?>
<!-- Generator: Adobe Illustrator 27.0.0, SVG Export Plug-In . SVG Version: 6.00 Build 0)  -->
<svg version="1.1" id="Layer_1" xmlns="http://www.w3.org/2000/svg" xmlns:xlink="http://www.w3.org/1999/xlink" x="0px" y="0px"
	 viewBox="0 0 360 360" style="enable-background:new 0 0 360 360;" xml:space="preserve">
<style type="text/css">
	.st0{fill-rule:evenodd;clip-rule:evenodd;fill:#979797;}
	.st1{fill-rule:evenodd;clip-rule:evenodd;fill:#9C4D4D;}
	.st2{fill-rule:evenodd;clip-rule:evenodd;fill:#D8D8D8;}
	.st3{fill-rule:evenodd;clip-rule:evenodd;fill:#FF78C7;}
	.st4{fill-rule:evenodd;clip-rule:evenodd;fill:#E43535;}
	.st5{fill-rule:evenodd;clip-rule:evenodd;fill:#595959;}
</style>
<path class="st0" d="M28,73.6h74.5v49.7H67.7c-13.7,0-28.1-10.7-32-23.8L28,73.6z"/>
<path class="st0" d="M331,73.6h-74.5v49.7h34.8c13.7,0,28.1-10.7,32-23.8L331,73.6z"/>
<path class="st1" d="M102.5,46.4c0-6.9,5.5-12.5,12.5-12.5l0,0c6.9,0,12.5,5.6,12.5,12.5v32.3h-25V46.4z M231.7,46.4
	c0-6.9,5.5-12.5,12.5-12.5l0,0c6.9,0,12.5,5.6,12.5,12.5v32.3h-24.8V46.4H231.7z"/>
<polygon class="st2" points="97.6,73.6 256.5,73.6 271.4,202.8 82.6,202.8 "/>
<path class="st3" d="M72.6,222.7c0-19.2,15.6-34.8,34.8-34.8h139c19.2,0,34.8,15.6,34.8,34.8v39.8c0,35.6-28.9,64.5-64.7,64.5H137
	c-35.6,0-64.7-28.9-64.7-64.5v-39.8H72.6z"/>
<circle class="st4" cx="221.7" cy="257.5" r="19.9"/>
<circle class="st4" cx="132.2" cy="257.5" r="19.9"/>
<circle class="st5" cx="147.2" cy="153.1" r="10"/>
<circle class="st5" cx="206.9" cy="153.1" r="10"/>
</svg>
