<?xml version="1.0" encoding="utf-8"?>
<!-- Generator: Adobe Illustrator 27.0.0, SVG Export Plug-In . SVG Version: 6.00 Build 0)  -->
<svg version="1.1" id="Layer_1" xmlns="http://www.w3.org/2000/svg" xmlns:xlink="http://www.w3.org/1999/xlink" x="0px" y="0px"
	 width="360px" height="360px" viewBox="0 0 360 360" enable-background="new 0 0 360 360" xml:space="preserve">
<path fill="#FEBD01" d="M194.3,314.6c-31.9-0.3-59.9-9.7-81.1-35c-7.4-8.8-11.7-19.3-12.6-30.8c-0.5-4.9-1.8-5.9-6.3-5.9
	c-19.3,0.2-38.5-0.2-57.8,0.3c-6,0.2-7.2-1.7-6.9-7.4c3.9-77,58.9-141.5,134.1-156.2c10-2,20.2-3.1,30.5-2.3l0.3,0.5
	c-0.3,0.5-0.3,0.9-0.2,1.4c0,11.2,0,22.7,0,33.9c0,0.5,0,1.1,0,1.5c0,55.6,0,111.3,0,166.9C194.5,292.6,194.3,303.5,194.3,314.6z"/>
<path fill="#F2F2F2" d="M53.2,199c4.3-3.2,5.4-6.8,7.2-9.7c26.3-42.4,63.8-67.8,113.7-73.2c8.8-0.9,5.9-6.3,6.3-10.8
	c0.8-6.2-3.7-4.6-7.1-4.6C119.3,101.6,68,143.2,53.2,199z"/>
<path d="M100.3,200.9c0.5,5.7,3.7,9.2,9.2,9.1c5.4-0.2,9.4-3.5,8.9-9.4c-0.3-4.5-2.6-9.4-8.2-8.9
	C105.4,191.9,99.7,193.3,100.3,200.9z"/>
<path fill="#9F09A9" d="M194.6,77.8l-0.3-0.5c29-0.9,54.5,8.9,75.8,27.9c35.7,31.7,48.8,72.1,37.9,118.5
	c-10.8,45.1-40.1,74.3-84.9,87.2c-9.2,2.6-19,4.3-28.8,3.5c0.2-10.9,0.2-22,0.3-33c2-0.2,4.2-0.3,6.2-0.5c51-4,86.3-49.6,76.4-99.5
	c-6.8-33.9-35.9-64.7-81.2-67.2c-0.5-0.5-0.9-0.9-1.2-1.2c0-11.2,0-22.7,0-33.9c0.2-0.2,0.5-0.3,0.5-0.3
	C195,78.5,194.8,78.2,194.6,77.8z"/>
<path fill="#9F0CA9" d="M274.3,59.4c0.2-8.5,5.4-14,12.3-14c6.6,0,12.6,6.2,12.2,13.1c-0.6,7.9-2.6,15.6-7.1,22.3
	c-3.4,5.2-7.2,5.2-10.6-0.2C276.8,73.9,274.9,66.4,274.3,59.4z"/>
<path fill="#9F09A9" d="M316.8,107.6c-7.6-0.6-15.1-2.6-21.9-7.1c-4.9-3.2-5.1-6.9,0-10.2c6.8-4.3,14.3-6.6,22.5-6.8
	c8-0.2,12.9,4.6,12.9,12C330.4,102.7,325.2,107.6,316.8,107.6z"/>
<path fill="#222C37" d="M236.6,224.1c-10.6,0-19.4-6.6-22.5-17.1c-2.9-10,0.8-21,9.6-26c5.7-3.4,12.5-4.8,19.1-3.1
	c2.8,0.8,6.9,2.2,1.7,6.2c-3.9,2.9-4.5,7.4-2,11.7c2.5,4,6.2,6.3,11.1,4.3c6.6-2.6,6.8,1.1,5.5,5.7
	C255.5,218.3,247,224.1,236.6,224.1z"/>
</svg>
