<?xml version="1.0" encoding="utf-8"?>
<!-- Generator: Adobe Illustrator 27.0.0, SVG Export Plug-In . SVG Version: 6.00 Build 0)  -->
<svg version="1.1" id="Layer_1" xmlns="http://www.w3.org/2000/svg" xmlns:xlink="http://www.w3.org/1999/xlink" x="0px" y="0px"
	 viewBox="0 0 360 360" style="enable-background:new 0 0 360 360;" xml:space="preserve">
<style type="text/css">
	.st0{fill-rule:evenodd;clip-rule:evenodd;fill:#5B68C0;}
	.st1{fill-rule:evenodd;clip-rule:evenodd;fill:#FFDD95;}
	.st2{fill-rule:evenodd;clip-rule:evenodd;fill:#FFAF40;}
</style>
<g>
	<path class="st0" d="M41.8,271.8c0-12.9,10.3-24.5,23-25.9L180,232l115.2,13.9c12.7,1.5,23,13.1,23,25.9V342H41.8V271.8z"/>
	<path class="st1" d="M134.3,214.7c-23-21.9-38.2-57.1-38.2-86.5c0-46.3,37.5-83.9,83.9-83.9s83.9,37.5,83.9,83.9
		c0,29.5-15.2,64.8-38.2,86.5v51.1c0,0-31,11.1-45.9,11.1S134,265.8,134,265.8v-51.1H134.3z"/>
	<circle class="st1" cx="98.9" cy="144.9" r="17.3"/>
	<circle class="st1" cx="261.1" cy="144.9" r="17.3"/>
	<path class="st2" d="M261.1,60.8c0-17.6-14.2-31.8-31.8-31.8H75.9v31.8c0,17.6,14.2,31.8,31.8,31.8h153.4V60.8z"/>
</g>
</svg>
