<?xml version="1.0" encoding="utf-8"?>
<!-- Generator: Adobe Illustrator 27.0.0, SVG Export Plug-In . SVG Version: 6.00 Build 0)  -->
<svg version="1.1" id="Layer_1" xmlns="http://www.w3.org/2000/svg" xmlns:xlink="http://www.w3.org/1999/xlink" x="0px" y="0px"
	 viewBox="0 0 360 360" style="enable-background:new 0 0 360 360;" xml:space="preserve">
<style type="text/css">
	.st0{fill-rule:evenodd;clip-rule:evenodd;fill:#E43535;}
	.st1{fill-rule:evenodd;clip-rule:evenodd;fill:#9C4D4D;}
	.st2{fill-rule:evenodd;clip-rule:evenodd;fill:#BD7575;}
	.st3{fill:none;stroke:#FCC24C;stroke-width:2;stroke-linecap:round;}
</style>
<path id="Oval" class="st0" d="M181.6,235.1c42.7,0,77.3-34.7,77.3-77.3c0-30.4-45.9-122.7-45.9-102.2s-7.6,30.7-13.1,27.5
	C166.2,63,188,27,181.4,27c-42.7,0-77.3,88.1-77.3,130.8S139,235.1,181.6,235.1z"/>
<g id="Group" transform="translate(31.639198, 52.204169) rotate(-15.000000) translate(-31.639198, -52.204169) translate(9.139198, 48.704169)">
	<path id="Combined-Shape" class="st1" d="M212.2,249.9l-215.4,0l0,38.6l215.4,0c9.1,0,16.6-8.7,16.6-19.3
		C228.8,258.6,221.3,249.9,212.2,249.9z"/>
	
		<ellipse id="Oval-2" transform="matrix(-1 5.215965e-06 -5.215965e-06 -1 -6.2531 538.5893)" class="st2" cx="-3.1" cy="269.3" rx="16.6" ry="19.3"/>
</g>
<g id="Group-Copy" transform="translate(31.639198, 52.204169) scale(-1, -1) rotate(-345.000000) translate(-31.639198, -52.204169) translate(9.139198, 48.704169)">
	<path id="Combined-Shape_00000128454419645124178230000000109508839141573045_" class="st1" d="M-73.7-204.9l-215.4,0v38.6l215.4,0
		c9.1,0,16.6-8.7,16.6-19.3C-57.1-196.2-64.5-204.9-73.7-204.9z"/>
	
		<ellipse id="Oval-2_00000078737120333816336970000006316536604335636630_" transform="matrix(-4.889122e-06 -1 1 -4.889122e-06 -103.3386 -474.7378)" class="st2" cx="-289" cy="-185.7" rx="19.3" ry="16.6"/>
</g>
<path id="Path-2" class="st3" d="M151.5,71.3c0,0-31,41.1-31,71.2"/>
</svg>
