<?xml version="1.0" encoding="utf-8"?>
<!-- Generator: Adobe Illustrator 27.0.0, SVG Export Plug-In . SVG Version: 6.00 Build 0)  -->
<svg version="1.1" id="Layer_1" xmlns="http://www.w3.org/2000/svg" xmlns:xlink="http://www.w3.org/1999/xlink" x="0px" y="0px"
	 width="360px" height="360px" viewBox="0 0 360 360" enable-background="new 0 0 360 360" xml:space="preserve">
<path fill="#D6FEF1" d="M264.8,169.6c-15.8,14.5-30.3,28.4-38.5,50.2c-8.3,21.8-10.6,52.7,2.7,102.3c0.5,1.7,0.6,3.4,0.5,5.2
	c-0.3,1.8-0.8,3.4-1.7,5c-0.9,1.5-2,2.9-3.4,3.9c-1.4,1.1-3.1,1.9-4.7,2.3c-1.7,0.5-3.4,0.5-5.2,0.4s-3.4-0.9-5-1.8
	c-1.5-0.9-2.8-2-3.9-3.6c-1-1.4-1.8-3.1-2.2-4.7c-14.2-53-12.5-90.3-1.9-118.4s29.5-45.8,45.4-60.3
	C249.3,148,270.2,164.6,264.8,169.6z"/>
<path fill="#D6FEF1" d="M95,169.6c15.8,14.5,30.3,28.4,38.5,50.2c8.3,21.8,10.6,52.7-2.7,102.3c-0.5,1.7-0.6,3.4-0.5,5.2
	c0.3,1.8,0.8,3.4,1.7,5c0.9,1.5,2,2.9,3.4,3.9s3.1,1.9,4.7,2.3c1.7,0.5,3.4,0.5,5.2,0.4s3.4-0.9,5-1.8c1.5-0.9,2.8-2,3.9-3.6
	c1-1.4,1.8-3.1,2.2-4.7c14.2-53,12.5-90.3,1.9-118.4s-29.5-45.8-45.4-60.3C110.7,148,89.7,164.6,95,169.6z"/>
<path fill="#D6FEF1" d="M166.8,68.2v257.3c0.1,3.4,1.5,6.7,3.9,9.2c2.4,2.4,5.7,3.7,9.3,3.7c3.4,0,6.7-1.4,9.3-3.7
	c2.4-2.4,3.9-5.7,3.9-9.2V68.2C193.2,60.8,166.8,60.8,166.8,68.2z"/>
<path fill="#00DDB3" d="M36.6,168.6c6.7,11.7,18.6,6.4,30.3,13.1c11.7,6.7,13,19.7,26.5,19.7s14.8-13,26.5-19.7s23.5-1.4,30.3-13.1
	c6.7-11.7-3.8-19.2-3.8-32.7s10.6-21,3.8-32.7c-6.7-11.7-18.6-6.4-30.3-13.1c-11.7-6.9-13-19.7-26.5-19.7s-14.8,13-26.5,19.7
	s-23.5,1.4-30.3,13.1c-6.7,11.7,3.8,19.2,3.8,32.7C40.5,149.3,29.9,156.9,36.6,168.6z"/>
<path fill="#FFFFFF" d="M93.4,154.2c4.8,0,9.5-1.9,13-5.3c3.4-3.4,5.3-8.1,5.3-13c0-2.4-0.5-4.8-1.4-7s-2.3-4.2-3.9-6
	c-1.7-1.7-3.7-3.1-6-3.9c-2.2-0.9-4.6-1.4-7-1.4s-4.8,0.5-7,1.4s-4.2,2.3-6,3.9c-1.7,1.7-3.1,3.7-3.9,6c-0.9,2.2-1.4,4.6-1.4,7
	c0,4.8,1.9,9.5,5.3,13C83.8,152.3,88.4,154.2,93.4,154.2z"/>
<path fill="#00DDB3" d="M323.4,168.6c-6.7,11.7-18.6,6.4-30.3,13.1c-11.7,6.7-13,19.7-26.5,19.7s-14.8-13-26.5-19.7
	s-23.5-1.4-30.3-13.1c-6.7-11.7,3.8-19.2,3.8-32.7s-10.6-21-3.8-32.7c6.7-11.7,18.6-6.4,30.3-13.1s13-19.7,26.5-19.7
	s14.8,13,26.5,19.7s23.5,1.4,30.3,13.1c6.7,11.7-3.8,19.2-3.8,32.7S330.1,156.9,323.4,168.6z"/>
<path fill="#FFFFFF" d="M266.6,154.2c-2.4,0-4.8-0.5-7-1.4s-4.2-2.3-6-3.9c-1.7-1.7-3.1-3.7-3.9-6c-0.9-2.2-1.4-4.6-1.4-7
	s0.5-4.8,1.4-7s2.3-4.2,3.9-6c1.7-1.7,3.7-3.1,6-3.9c2.3-0.9,4.6-1.4,7-1.4s4.8,0.5,7,1.4s4.2,2.3,6,3.9c1.7,1.7,3.1,3.7,3.9,6
	c0.9,2.2,1.4,4.6,1.4,7c0,4.8-1.9,9.5-5.3,13C276.2,152.3,271.5,154.2,266.6,154.2z"/>
<path fill="#00A1FF" d="M236.7,119.2c-6.7,11.7-18.6,6.4-30.3,13.1c-11.7,6.7-13,19.7-26.5,19.7s-14.8-13-26.5-19.7
	s-23.5-1.4-30.3-13.1c-6.7-11.7,3.8-19.2,3.8-32.7s-10.6-21-3.8-32.7c6.7-11.7,18.6-6.4,30.3-13.1S166.4,21,180,21
	c13.5,0,14.8,13,26.5,19.7s23.5,1.4,30.3,13.1c6.7,11.7-3.8,19.2-3.8,32.7C232.8,100,243.5,107.5,236.7,119.2z"/>
<path fill="#FFFFFF" d="M180,104.8c-4.8,0-9.5-1.9-13-5.3s-5.3-8.1-5.3-13c0-2.4,0.5-4.8,1.4-7s2.3-4.2,3.9-6c1.7-1.7,3.7-3.1,6-3.9
	c2.3-0.9,4.6-1.4,7-1.4s4.8,0.5,7,1.4c2.3,0.9,4.2,2.3,6,3.9c1.7,1.7,3.1,3.7,3.9,6c0.9,2.3,1.4,4.6,1.4,7s-0.5,4.8-1.4,7
	s-2.3,4.2-3.9,6c-1.7,1.7-3.7,3.1-6,3.9S182.4,104.8,180,104.8z"/>
<path fill="#00A1FF" d="M141.2,248.7c25.3,7.8,52.3,7.3,80.8,0c8-2,15,6.6,15,15c0,8.3-6.7,16.3-15,15c-27-4.3-53.8-5.7-80.8,0
	c-8.1,1.8-15-6.6-15-15C126.2,255.4,133.3,246.3,141.2,248.7z"/>
</svg>
