<?xml version="1.0" encoding="utf-8"?>
<!-- Generator: Adobe Illustrator 27.0.0, SVG Export Plug-In . SVG Version: 6.00 Build 0)  -->
<svg version="1.1" id="Layer_1" xmlns="http://www.w3.org/2000/svg" xmlns:xlink="http://www.w3.org/1999/xlink" x="0px" y="0px"
	 width="360px" height="360px" viewBox="0 0 360 360" enable-background="new 0 0 360 360" xml:space="preserve">
<g>
	<path fill-rule="evenodd" clip-rule="evenodd" fill="#FFDD95" d="M58.3,115.8L33.9,57.6c-3.3-7.9,0.4-11.6,8.3-8.2l76.4,32.7
		L58.3,115.8z"/>
	<path fill-rule="evenodd" clip-rule="evenodd" fill="#FFDD95" d="M300.4,115.8l24.4-58.2c3.3-7.9-0.4-11.6-8.3-8.2l-76.4,32.7
		L300.4,115.8z"/>
	<path fill-rule="evenodd" clip-rule="evenodd" fill="#9C4D4D" d="M264.9,199.4c-22.9,12.5-53.5,20.1-86.9,20.1
		c-34.7,0-66.2-8.2-89.5-21.5l-71-21.2l38.3-9.3c-4.6-8-7.2-16.6-7.2-25.5c0-42.9,57.9-77.7,129.4-77.7S307.6,99,307.6,141.9
		c0,8.7-2.4,17.2-6.9,25.1l40.3,9.7L264.9,199.4z"/>
	<g>
		
			<ellipse transform="matrix(0.9272 -0.3746 0.3746 0.9272 -56.5766 65.104)" fill-rule="evenodd" clip-rule="evenodd" fill="#FFFFFF" cx="139.2" cy="178.1" rx="36.3" ry="41.4"/>
		
			<ellipse transform="matrix(0.3746 -0.9272 0.9272 0.3746 -23.0739 321.9737)" fill-rule="evenodd" clip-rule="evenodd" fill="#FFFFFF" cx="227.1" cy="178.1" rx="41.4" ry="36.3"/>
		<circle fill-rule="evenodd" clip-rule="evenodd" fill="#595959" cx="224.6" cy="178" r="15.5"/>
		<circle fill-rule="evenodd" clip-rule="evenodd" fill="#595959" cx="136.6" cy="178" r="15.5"/>
	</g>
	<g>
		<path fill-rule="evenodd" clip-rule="evenodd" fill="#FFDD95" d="M207,286.2c-15.9,29-41.9,28.8-57.8,0l-25.4-46
			c-15.8-4.4-48.3-11.3-70.7-1.7l4.9-22.9L33.8,221l33.8-42.4l23.8,14.9c4.9,3,12.9,3.4,18.1,0.9c0,0,30.5-17.6,70.2-17.6
			s70.2,17.6,70.2,17.6c5.2,2.6,13.2,2.2,18.1-0.9l23.8-14.9l33.8,42.4l-24.2-5.4l4.9,22.9c-24.2-10.3-60.4-1.4-74.3,2.7L207,286.2z
			"/>
		<ellipse fill-rule="evenodd" clip-rule="evenodd" fill="#595959" cx="178" cy="302.3" rx="20.6" ry="15.5"/>
	</g>
</g>
</svg>
