<?xml version="1.0" encoding="utf-8"?>
<!-- Generator: Adobe Illustrator 27.0.0, SVG Export Plug-In . SVG Version: 6.00 Build 0)  -->
<svg version="1.1" id="Layer_1" xmlns="http://www.w3.org/2000/svg" xmlns:xlink="http://www.w3.org/1999/xlink" x="0px" y="0px"
	 viewBox="0 0 360 360" style="enable-background:new 0 0 360 360;" xml:space="preserve">
<style type="text/css">
	.st0{fill-rule:evenodd;clip-rule:evenodd;fill:#80D25B;}
	.st1{fill-rule:evenodd;clip-rule:evenodd;fill:#22BA8E;}
	.st2{fill-rule:evenodd;clip-rule:evenodd;fill:#595959;}
	.st3{fill-rule:evenodd;clip-rule:evenodd;fill:#FFFFFF;}
	.st4{fill:none;stroke:#22BA8E;stroke-width:2;stroke-linecap:round;}
</style>
<path class="st0" d="M115.1,312.9c-9.6-8.6-21.2-24.1-31.4-43.2c-17.2-32.4-23.8-62.6-14.6-67.4c9.2-4.8,30.5,17.4,47.7,49.7
	c10.5,19.7,17.1,38.7,18.4,51.5l13.4-6.1l35.7,37.5H82.7c-8.9,0-9.5-3.1-1.5-6.7L115.1,312.9z"/>
<path class="st0" d="M247.3,312.9c9.6-8.6,21.2-24.1,31.4-43.2c17.2-32.4,23.8-62.6,14.6-67.4c-9.2-4.8-30.5,17.4-47.7,49.7
	c-10.5,19.7-17.1,38.7-18.4,51.5l-13.4-6.1l-36,37.6h102c8.9,0,9.5-3.1,1.5-6.7L247.3,312.9z"/>
<path class="st1" d="M180.2,335.2c50.3,0,91.2-42,91.2-92.3s-40.8-91.2-91.2-91.2S89,192.5,89,242.9S129.8,335.2,180.2,335.2z"/>
<ellipse class="st0" cx="115.8" cy="57.9" rx="32.2" ry="34.9"/>
<ellipse class="st0" cx="244.5" cy="57.9" rx="32.2" ry="34.9"/>
<circle class="st0" cx="180.2" cy="130.2" r="102"/>
<g>
	<ellipse class="st2" cx="115.8" cy="60.5" rx="21.4" ry="26.8"/>
	<circle class="st3" cx="115.8" cy="49.8" r="5.4"/>
	<ellipse class="st2" cx="244.5" cy="60.5" rx="21.4" ry="26.8"/>
	<circle class="st3" cx="244.5" cy="49.8" r="5.4"/>
</g>
<path class="st4" d="M110.3,170.2c0,0,35.5,11.2,70.8,11.2s70.8-11.2,70.8-11.2"/>
</svg>
