<?xml version="1.0" encoding="utf-8"?>
<!-- Generator: Adobe Illustrator 27.0.0, SVG Export Plug-In . SVG Version: 6.00 Build 0)  -->
<svg version="1.1" id="Layer_1" xmlns="http://www.w3.org/2000/svg" xmlns:xlink="http://www.w3.org/1999/xlink" x="0px" y="0px"
	 viewBox="0 0 360 360" style="enable-background:new 0 0 360 360;" xml:space="preserve">
<style type="text/css">
	.st0{fill:#E6E9ED;}
	.st1{fill:#BA9BFC;}
	.st2{fill:#9C73F8;}
	.st3{fill:#F5F7FA;}
	.st4{opacity:0.1;enable-background:new    ;}
</style>
<path class="st0" d="M266.3,49.1c-9.6-17.9-21.1-27-34.1-27c-15,0-30.7,12.3-46.5,36.5c-1.9,3-3.8,6.1-5.7,9.2
	c-1.8-3.1-3.7-6.2-5.7-9.2C158.6,34.3,143,22,127.9,22c-13.1,0-24.5,9.1-34.1,27c-7.2,13.4-4.6,23.1-1.1,28.8
	c6.2,10.3,20,17.2,42.3,21.2c17.1,3.1,35.2,3.5,44.4,3.5h1.6c9.2,0,27.3-0.4,44.4-3.5c22.3-4,36-10.9,42.3-21.2
	C270.8,72.1,273.4,62.5,266.3,49.1z"/>
<path class="st1" d="M320.9,138.2c0-7.4-6-13.4-13.4-13.4h-255c-7.4,0-13.4,6-13.4,13.4v185.7c0,7.4,6,13.4,13.4,13.4h254.9
	c7.4,0,13.4-6,13.4-13.4L320.9,138.2L320.9,138.2z"/>
<path class="st2" d="M341,149.5c0,7.4-6,13.4-13.4,13.4H32.4c-7.4,0-13.4-6-13.4-13.4V95.8c0-7.4,6-13.5,13.4-13.5h295.1
	c7.4,0,13.4,6,13.4,13.4L341,149.5L341,149.5z"/>
<path class="st3" d="M146.5,82.4h67.1v80.5h-67.1V82.4z"/>
<path class="st4" d="M39.1,176.2l281.8,25.6v-38.5H39.1V176.2z"/>
<g>
	<path class="st3" d="M207.9,186.9c-10.9,0-20.9,4.5-28,11.8c-7.1-7.2-17-11.8-27.9-11.8c-21.6,0-39.1,17.5-39.1,39.1
		c0,44.7,67.1,83.8,67.1,83.8s67.1-39.1,67.1-83.8C247.1,204.5,229.6,186.9,207.9,186.9z"/>
	<path class="st4" d="M207.9,186.9c-2.3,0-4.5,0.2-6.7,0.6c18.4,3.1,32.5,19.2,32.5,38.6c0,36-43.4,68.3-60.4,79.6
		c4.2,2.8,6.7,4.3,6.7,4.3s67.1-39.1,67.1-83.8C247.1,204.5,229.6,186.9,207.9,186.9z"/>
</g>
</svg>
