<?xml version="1.0" encoding="utf-8"?>
<!-- Generator: Adobe Illustrator 27.0.0, SVG Export Plug-In . SVG Version: 6.00 Build 0)  -->
<svg version="1.1" id="Layer_1" xmlns="http://www.w3.org/2000/svg" xmlns:xlink="http://www.w3.org/1999/xlink" x="0px" y="0px"
	 width="360px" height="360px" viewBox="0 0 360 360" enable-background="new 0 0 360 360" xml:space="preserve">
<circle fill-rule="evenodd" clip-rule="evenodd" fill="#22BA8E" cx="212.3" cy="81.5" r="43.2"/>
<circle fill-rule="evenodd" clip-rule="evenodd" fill="#22BA8E" cx="114.9" cy="108.4" r="43.2"/>
<circle fill-rule="evenodd" clip-rule="evenodd" fill="#80D25B" cx="163.6" cy="65.2" r="43.2"/>
<ellipse transform="matrix(0.1602 -0.9871 0.9871 0.1602 58.148 339.3448)" fill-rule="evenodd" clip-rule="evenodd" fill="#80D25B" cx="228.5" cy="135.5" rx="43.2" ry="43.2"/>
<circle fill-rule="evenodd" clip-rule="evenodd" fill="#80D25B" cx="196" cy="178.7" r="43.2"/>
<path fill-rule="evenodd" clip-rule="evenodd" fill="#BD7575" d="M163.6,146.3h21.6c0,0-2.7,47.3,0,97.4
	c2.7,49.9,21.6,97.4,21.6,97.4H142c0,0,19-49.9,21.6-97.4S163.6,146.3,163.6,146.3z"/>
<path fill="none" stroke="#22BA8E" stroke-width="2" stroke-linecap="square" d="M39.2,335.6h281.6"/>
<circle fill-rule="evenodd" clip-rule="evenodd" fill="#22BA8E" cx="174.4" cy="124.7" r="75.6"/>
<circle fill-rule="evenodd" clip-rule="evenodd" fill="#80D25B" cx="131.2" cy="167.9" r="43.2"/>
</svg>
