<?xml version="1.0" encoding="utf-8"?>
<!-- Generator: Adobe Illustrator 27.0.0, SVG Export Plug-In . SVG Version: 6.00 Build 0)  -->
<svg version="1.1" id="Layer_1" xmlns="http://www.w3.org/2000/svg" xmlns:xlink="http://www.w3.org/1999/xlink" x="0px" y="0px"
	 viewBox="0 0 360 360" style="enable-background:new 0 0 360 360;" xml:space="preserve">
<style type="text/css">
	.st0{fill:#CCD8E5;}
	.st1{fill:#FFFFFF;}
	.st2{fill:#0058E3;}
	.st3{fill:#3A86FF;}
</style>
<path class="st0" d="M179.6,69.3c25.2,0,49.3,10,67.1,27.8c17.8,17.8,27.8,41.9,27.8,67.1c0.1,23.4-8.6,45.9-24.3,63.2
	c-12.7,19.5-20.3,41.8-22.1,65c-0.4,3.9-2.3,7.5-5.2,10.1c-2.9,2.6-6.7,4-10.6,4h-65.3c-3.9,0-7.7-1.4-10.6-4
	c-2.9-2.6-4.8-6.2-5.2-10.1c-1.9-23.1-9.4-45.3-22-64.8h-0.6c-15.7-17.3-24.4-39.9-24.3-63.2c0-12.5,2.4-24.9,7.2-36.5
	c4.8-11.6,11.8-22.1,20.7-30.9c8.9-8.8,19.4-15.8,31-20.6C154.7,71.6,167.1,69.3,179.6,69.3z"/>
<path class="st1" d="M242.8,156.3c-1,0.2-2,0.2-3,0c-1-0.3-1.9-0.9-2.5-1.7c-0.8-0.7-1.4-1.6-1.8-2.5c-0.4-1-0.6-2-0.6-3
	c0-1,0.2-2.1,0.6-3c0.4-1,1-1.8,1.8-2.5c0.7-0.8,1.5-1.4,2.5-1.7c1.4-0.6,3-0.8,4.5-0.4c1.5,0.3,2.9,1.1,4,2.2
	c0.8,0.7,1.4,1.6,1.8,2.5c0.4,1,0.6,2,0.6,3c0.2,1,0.2,2,0,3c-0.3,1-0.9,1.9-1.7,2.5c-0.8,0.7-1.8,1.3-2.9,1.6
	C245,156.4,243.9,156.5,242.8,156.3z M231.3,135.7c-1.3,0-2.5-0.3-3.7-0.9c-1.1-0.6-2.1-1.4-2.8-2.5c-8.1-11.5-20.2-19.6-34-22.4
	c-1-0.2-2-0.6-2.8-1.2c-0.9-0.6-1.6-1.3-2.2-2.2c-0.6-0.9-1-1.8-1.2-2.9c-0.2-1-0.2-2.1,0-3.1c0.5-2,1.7-3.8,3.4-5
	c1.7-1.1,3.9-1.6,5.9-1.2c17.8,3.6,33.5,14,43.8,28.9c0.6,0.8,1,1.8,1.2,2.8c0.2,1,0.2,2.1,0,3.1c-0.2,1-0.6,2-1.2,2.8
	c-0.6,0.9-1.3,1.6-2.2,2.2C234.4,135.2,232.9,135.7,231.3,135.7z"/>
<path class="st2" d="M211.2,346H148c-2.1,0-4.1-0.8-5.6-2.3c-1.5-1.5-2.3-3.5-2.3-5.6c0-2.1,0.8-4.1,2.3-5.6
	c1.5-1.5,3.5-2.3,5.6-2.3h63.2c2.1,0,4.1,0.8,5.6,2.3c1.5,1.5,2.3,3.5,2.3,5.6c0,2.1-0.8,4.1-2.3,5.6
	C215.3,345.2,213.3,346,211.2,346z"/>
<path class="st3" d="M179.6,45.6c-2.1,0-4.1-0.8-5.6-2.3c-1.5-1.5-2.3-3.5-2.3-5.6V21.9c0-2.1,0.8-4.1,2.3-5.6
	c1.5-1.5,3.5-2.3,5.6-2.3c2.1,0,4.1,0.8,5.6,2.3c1.5,1.5,2.3,3.5,2.3,5.6v15.8c0,2.1-0.8,4.1-2.3,5.6
	C183.7,44.8,181.7,45.6,179.6,45.6z M269.1,82.6c-1,0-2.1-0.2-3-0.6c-1-0.4-1.8-1-2.5-1.8c-0.8-0.7-1.4-1.6-1.8-2.5
	c-0.4-1-0.6-2-0.6-3c0-1,0.2-2.1,0.6-3c0.4-1,1-1.8,1.8-2.5l11.1-11.1c1.5-1.5,3.5-2.3,5.5-2.3c2.1,0,4.1,0.8,5.5,2.3
	c1.5,1.5,2.3,3.5,2.3,5.5c0,2.1-0.8,4.1-2.3,5.5l-11.1,11.1c-0.7,0.8-1.6,1.4-2.5,1.8C271.1,82.4,270.1,82.6,269.1,82.6z
	 M321.9,172.1h-15.8c-2.1,0-4.1-0.8-5.6-2.3c-1.5-1.5-2.3-3.5-2.3-5.6c0-2.1,0.8-4.1,2.3-5.6c1.5-1.5,3.5-2.3,5.6-2.3h15.8
	c2.1,0,4.1,0.8,5.6,2.3c1.5,1.5,2.3,3.5,2.3,5.6c0,2.1-0.8,4.1-2.3,5.6C326,171.3,324,172.1,321.9,172.1z M280.1,272.6
	c-1,0-2.1-0.2-3-0.6c-1-0.4-1.8-1-2.5-1.8l-11.1-11.1c-1.5-1.5-2.3-3.5-2.3-5.5s0.8-4.1,2.3-5.5c1.5-1.5,3.5-2.3,5.5-2.3
	c2.1,0,4.1,0.8,5.5,2.3l11.1,11.1c0.8,0.7,1.4,1.6,1.8,2.5c0.4,1,0.6,2,0.6,3c0,1-0.2,2.1-0.6,3c-0.4,1-1,1.8-1.8,2.5
	c-0.7,0.8-1.6,1.4-2.5,1.8C282.2,272.5,281.2,272.7,280.1,272.6z M79,272.6c-1,0-2.1-0.2-3-0.6c-1-0.4-1.8-1-2.5-1.8
	c-0.8-0.7-1.4-1.6-1.8-2.5c-0.4-1-0.6-2-0.6-3c0-1,0.2-2.1,0.6-3c0.4-1,1-1.8,1.8-2.5l11.1-11.1c1.5-1.5,3.5-2.3,5.5-2.3
	c2.1,0,4.1,0.8,5.5,2.3c1.5,1.5,2.3,3.5,2.3,5.5s-0.8,4.1-2.3,5.5l-11.1,11.1c-0.7,0.8-1.6,1.4-2.5,1.8
	C81.1,272.5,80.1,272.7,79,272.6z M53.1,172.1H37.3c-2.1,0-4.1-0.8-5.6-2.3c-1.5-1.5-2.3-3.5-2.3-5.6c0-2.1,0.8-4.1,2.3-5.6
	c1.5-1.5,3.5-2.3,5.6-2.3h15.8c2.1,0,4.1,0.8,5.6,2.3c1.5,1.5,2.3,3.5,2.3,5.6c0,2.1-0.8,4.1-2.3,5.6
	C57.2,171.3,55.2,172.1,53.1,172.1z M90.1,82.6c-1,0-2.1-0.2-3-0.6c-1-0.4-1.8-1-2.5-1.8L73.5,69.2c-1.5-1.5-2.3-3.5-2.3-5.5
	c0-2.1,0.8-4.1,2.3-5.5c1.5-1.5,3.5-2.3,5.5-2.3c2.1,0,4.1,0.8,5.5,2.3l11.1,11.1c0.8,0.7,1.4,1.6,1.8,2.5c0.4,1,0.6,2,0.6,3
	c0,1-0.2,2.1-0.6,3c-0.4,1-1,1.8-1.8,2.5c-0.7,0.8-1.6,1.4-2.5,1.8C92.2,82.4,91.2,82.6,90.1,82.6z"/>
</svg>
