<?xml version="1.0" encoding="utf-8"?>
<!-- Generator: Adobe Illustrator 27.0.0, SVG Export Plug-In . SVG Version: 6.00 Build 0)  -->
<svg version="1.1" id="Layer_1" xmlns="http://www.w3.org/2000/svg" xmlns:xlink="http://www.w3.org/1999/xlink" x="0px" y="0px"
	 width="360px" height="360px" viewBox="0 0 360 360" enable-background="new 0 0 360 360" xml:space="preserve">
<path fill="#707070" d="M253.6,129.1c-3.2,0-6.3-1.3-8.6-3.6c-2.3-2.3-3.6-5.4-3.6-8.6V96.2c0-11.5-4.6-22.4-12.6-30.6
	c-8.1-8.1-19-12.7-30.5-12.8h-36.5c-11.5,0-22.5,4.6-30.7,12.7s-12.7,19.2-12.7,30.7v20.7c0,3.2-1.3,6.3-3.6,8.6
	c-2.3,2.3-5.4,3.6-8.6,3.6s-6.3-1.3-8.6-3.6c-2.3-2.3-3.6-5.4-3.6-8.6V96.2c0-18,7.2-35.2,19.9-47.9c12.6-12.6,29.9-19.8,47.8-19.8
	h36.5c17.9,0.1,35.1,7.3,47.7,19.9c12.6,12.7,19.8,29.9,19.8,47.8v20.7c0,3.2-1.3,6.3-3.6,8.6C259.9,127.8,256.8,129.1,253.6,129.1z
	"/>
<path fill="#00DDB3" d="M210.5,330.6h-61c-12.4,0-24.7-2.4-36.2-7.1s-21.9-11.7-30.7-20.4c-8.8-8.8-15.8-19.2-20.5-30.6
	C57.4,261,55,248.7,55,236.3v-49.7c0-11.8,4.7-23.1,13-31.4c8.3-8.3,19.7-13,31.4-13h161.1c11.8,0,23.1,4.7,31.4,13s13,19.6,13,31.4
	v49.9c0,12.4-2.5,24.7-7.3,36.1s-11.7,21.8-20.5,30.6c-8.8,8.7-19.2,15.7-30.7,20.4C235.1,328.2,222.8,330.6,210.5,330.6z"/>
<path fill="#FFFFFF" d="M180,260.2c-3.2,0-6.3-1.3-8.6-3.6c-2.3-2.3-3.6-5.4-3.6-8.6v-31.9c0-3.2,1.3-6.3,3.6-8.6s5.4-3.6,8.6-3.6
	s6.3,1.3,8.6,3.6s3.6,5.4,3.6,8.6V248c0,3.2-1.3,6.3-3.6,8.6C186.3,258.9,183.2,260.2,180,260.2z"/>
</svg>
