<?xml version="1.0" encoding="utf-8"?>
<!-- Generator: Adobe Illustrator 27.0.0, SVG Export Plug-In . SVG Version: 6.00 Build 0)  -->
<svg version="1.1" id="Layer_1" xmlns="http://www.w3.org/2000/svg" xmlns:xlink="http://www.w3.org/1999/xlink" x="0px" y="0px"
	 width="360px" height="360px" viewBox="0 0 360 360" enable-background="new 0 0 360 360" xml:space="preserve">
<path fill="#00A1FF" d="M142.3,211l20.1-5.4c12.8-3.5,26,4.1,29.4,17.1l5.4,20.2c3.4,12.9-4.1,26.1-17,29.6l-20.1,5.4
	c-12.8,3.5-26-4.1-29.4-17.1l-5.4-20.2C121.9,227.6,129.5,214.4,142.3,211z"/>
<path fill="#0066FF" d="M145.1,228l42.4,81.5c3.3,6.3-0.5,13.9-7,16.6l-13.2,5.3c-6.5,2.6-12.2-1.5-16.5-7.2L82.9,235L145.1,228z"/>
<path fill="#0066FF" d="M312,164.2c18.1-4.6,28.6-23.4,23.9-41.6c-4.8-18.2-23.2-28.6-41.2-24l-17.2,4.4l17.5,65.6L312,164.2z"/>
<path fill="#A8D0FF" d="M260.9,27.5c-10.3,2.8-160.6,100.6-160.6,100.6L97,138.7l23.9,94.8l9.4,7.3c0,0,177.6,4.3,187.8,1.5
	s16.2-13.3,13.6-23.6L284.2,41.2C281.5,30.9,271.1,24.8,260.9,27.5z"/>
<path fill="#00A1FF" d="M100.3,128.1L60,139c-13.4,3.6-21.3,17.3-18,30.8c-14.3,7-22.1,23.2-17.8,39.2s19.1,26.4,34.8,25.1
	c3.9,13.2,17.5,20.8,30.8,17.3l40.3-10.9L100.3,128.1z"/>
<path fill="#FFFFFF" d="M61.8,191.3c-1.9-7,2.3-14.2,9.3-16.1s14.2,2.3,15.9,9.3l3,11.1c1.9,7-2.3,14.2-9.3,15.9
	c-7,1.9-14.2-2.3-15.9-9.3L61.8,191.3z"/>
</svg>
