<?xml version="1.0" encoding="utf-8"?>
<!-- Generator: Adobe Illustrator 27.0.0, SVG Export Plug-In . SVG Version: 6.00 Build 0)  -->
<svg version="1.1" id="Layer_1" xmlns="http://www.w3.org/2000/svg" xmlns:xlink="http://www.w3.org/1999/xlink" x="0px" y="0px"
	 width="360px" height="360px" viewBox="0 0 360 360" enable-background="new 0 0 360 360" xml:space="preserve">
<path fill="#D9EDED" d="M240.1,29.5l-28.7,83.8c-10.2-3.4-20.9-5.1-31.6-5.1c-10.7,0-21.4,1.8-31.6,5.1l-28.7-83.8H240.1z"/>
<path fill="#D9EDED" d="M304.9,249.5v0.9c-0.3,21.2-9,41.4-24.1,56.2c-15.1,14.8-35.5,23.1-56.6,23h-88.6
	c-21.2,0.1-41.5-8.2-56.6-23s-23.8-35-24.1-56.2v-0.9c0-44.2,22.9-89.6,57.4-116.7c9.6-7.6,20.3-13.7,31.7-18c1.4-0.5,2.8-1,4.3-1.5
	c10.2-3.4,20.9-5.1,31.6-5.1c10.7,0,21.4,1.7,31.6,5.1C265.2,131,304.9,191.4,304.9,249.5z"/>
<path fill="#FFFFFF" d="M213,258.8c0-7.7-3.1-15.1-8.5-20.5s-12.8-8.5-20.5-8.5h-8c-1.5,0-2.9-0.2-4.3-0.8c-1.4-0.5-2.6-1.3-3.6-2.3
	s-1.9-2.2-2.5-3.6c-0.6-1.3-0.9-2.8-0.9-4.2c0-1.5,0.3-2.9,0.8-4.3c0.5-1.3,1.4-2.6,2.4-3.6s2.2-1.9,3.6-2.4
	c1.3-0.6,2.8-0.8,4.2-0.8h30.5v-18h-14.4v-15.1h-18v15.2c-7.5,0.5-14.5,3.9-19.6,9.5s-7.7,12.9-7.5,20.4s3.4,14.7,8.8,19.9
	c5.4,5.2,12.6,8.2,20.2,8.2h8c1.5,0,2.9,0.2,4.3,0.7c1.4,0.5,2.6,1.3,3.7,2.3c1,1,1.9,2.2,2.5,3.6c0.6,1.3,0.9,2.8,0.9,4.2
	c0,1.5-0.3,2.9-0.8,4.3s-1.4,2.6-2.4,3.6s-2.2,1.9-3.6,2.4c-1.3,0.6-2.8,0.9-4.2,0.9h-30.5v18H168v14.9h18v-15
	c7.4-0.5,14.2-3.7,19.3-9.1C210.2,273.2,213,266.1,213,258.8z"/>
<path fill="#5777FF" d="M217.3,96.8h-74.8v18h42.4v49.6h18v-49.6h14.5L217.3,96.8L217.3,96.8z"/>
<path fill="#2B56E0" d="M202.8,114.8h-18v18h18V114.8z"/>
<path fill="#D0E3E3" d="M304,261.5c-2.6,16.6-10.4,31.9-22.1,43.8c-11.8,11.9-27,19.9-43.5,22.8v-18.4c11.7-2.7,22.3-8.6,30.7-17.2
	c8.4-8.6,14.1-19.3,16.6-31.1H304V261.5z"/>
</svg>
