<?xml version="1.0" encoding="utf-8"?>
<!-- Generator: Adobe Illustrator 27.0.0, SVG Export Plug-In . SVG Version: 6.00 Build 0)  -->
<svg version="1.1" id="Layer_1" xmlns="http://www.w3.org/2000/svg" xmlns:xlink="http://www.w3.org/1999/xlink" x="0px" y="0px"
	 viewBox="0 0 360 360" style="enable-background:new 0 0 360 360;" xml:space="preserve">
<style type="text/css">
	.st0{fill-rule:evenodd;clip-rule:evenodd;fill:#595959;}
	.st1{fill-rule:evenodd;clip-rule:evenodd;fill:#979797;}
	.st2{fill-rule:evenodd;clip-rule:evenodd;fill:#ED9111;}
	.st3{fill:none;stroke:#5B68C0;stroke-width:2;stroke-linecap:square;}
	.st4{fill:#5B68C0;}
</style>
<path class="st0" d="M288.8,37.3v287.5c0,5.6-4.6,10.3-10.3,10.3h-195c-5.6,0-10.3-4.6-10.3-10.3V37.3c0-5.6,4.6-10.3,10.3-10.3
	h195.1C284.2,27,288.8,31.6,288.8,37.3z"/>
<circle class="st1" cx="175.9" cy="314.5" r="10.3"/>
<path class="st2" d="M278.5,47.5v241.3c0,2.8-2.3,5.1-5.1,5.1H88.6c-2.8,0-5.1-2.3-5.1-5.1V47.5c0-2.8,2.3-5.1,5.1-5.1h184.8
	C276.2,42.4,278.5,44.7,278.5,47.5z"/>
<path class="st3" d="M109.1,155.3h143.7 M109.1,196.4h143.7 M109.1,175.9h92.5 M222.1,175.9h30.8 M109.1,216.9h56.5"/>
<g>
	<path class="st4" d="M145.9,114.2l-1.1-39.4c0-0.5,0.4-1.1,1.2-1.6c0.8-0.5,1.2-1.2,1.1-2.1c0-1.5-1.1-2.8-2.8-4
		c-1.9-1.2-3.7-1.9-5.5-1.9c-1.1,0-1.9,0.3-2.4,0.8c-0.9,0.9-1.5,1.7-1.5,2.4c0,0.3,0.1,0.7,0.5,1.2c0.4,0.5,0.5,1.1,0.5,1.5
		l0.8,35.1c-9.1-15.7-14.2-25.8-15.1-30.8c0-0.1-0.1-0.3-0.1-0.4c0-0.1,0-0.5,0.1-1.1c0.1-0.5,0.1-0.8,0.1-1.2
		c0-0.7-0.3-1.2-0.7-1.7c-1.5-1.9-4.2-2.8-7.6-2.8c-1.3,0-2.4,0.3-3.1,0.7c-0.8,0.4-1.1,1.1-1.1,1.7c0,0.3,0,0.5,0.1,1.1
		s0.1,0.8,0.1,1.1l2.3,44.1c0,0.5-0.3,1.1-1.1,1.6s-1.1,1.5-0.9,2.7c0.1,1.5,1.1,2.7,2.8,3.7c1.6,1.1,3.3,1.6,5.1,1.6
		c1.6,0,2.8-0.5,3.6-1.6c0.5-0.7,0.8-1.5,0.8-2.4c0-0.7-0.3-1.5-0.7-2.5c-0.4-1.1-0.8-1.5-0.8-1.7c-0.9-13.5-1.3-22.8-1.2-27.6
		c1.7,4.2,4.4,9.2,8,15.4c1.5,2.5,3.1,5.2,4.8,7.9c0.4,0.7,0.7,1.6,0.7,2.8c0,1.3,0.1,2.3,0.4,2.8c1.5,3.7,4.3,5.8,8.3,6
		c1.6,0.1,2.9-0.4,4.2-1.6c1.1-1.2,1.7-2.7,1.7-4.3c0-0.7-0.3-1.6-0.9-2.7C146.1,115.8,145.9,114.8,145.9,114.2z"/>
	<path class="st4" d="M172.8,111.8c-0.4,0-0.7,0.1-1.1,0.3c-0.8,0.4-1.3,1.1-1.5,2.1c-0.1,0.9-0.4,1.5-0.5,1.6
		c-0.4,0.7-1.1,1.3-2.1,2.1c-1.2,0.8-2.4,1.3-3.5,1.3c-1.2,0-2-0.5-2.7-1.7c-0.3-0.5-0.7-1.9-1.2-3.7c0,0,0.1,0,0.1-0.1l-0.4-7.1
		c-0.1,0-0.1,0.1-0.3,0.1c-0.3-3.5,0.4-7.1,1.9-10.8c1.2-2.7,2.8-4.2,4.7-4.2c1.7,0,2.5,0.9,2.5,2.8c0,2-0.9,4.4-2.8,7.1
		c-1.7,2.4-3.6,4-5.6,4.8l0.5,7.1c4.6-1.7,8.3-4.6,11.2-8.6c2.8-3.7,4.2-7.2,3.7-10.4c-0.5-7-3.7-10.4-9.4-10.4
		c-0.7,0-1.5,0-2.3,0.1c-3.9,0.5-7.1,3.2-9.4,7.9c-2.1,4.3-3.2,9.2-3.2,14.9c0,5.2,0.9,9.6,2.8,13.3c2,3.9,4.8,5.9,8.4,6.2
		c1.9,0.1,4.2-0.3,6.8-1.3c2.3-0.8,3.6-1.6,4-2.1c2.1-2,3.5-4,3.9-5.8c0.3-1.2-0.1-2.4-1.2-3.5C175.1,112.4,174,111.8,172.8,111.8z"
		/>
	<path class="st4" d="M257.7,108c-0.8-1.1-2.3-2.1-4.4-3.2c-2.4-1.2-4-2.1-4.7-2.8c-1.9-1.7-2.7-3.9-2.7-6.7c0-2.7,0.7-4.2,2.1-4.2
		c0.9,0,1.3,0.7,1.3,1.9c0,0.4,0,0.9-0.1,1.7c-0.1,0.8-0.1,1.3-0.1,1.9c0,0.9,0.1,1.7,0.5,2.3c1.2,2.1,2.5,3.2,4.3,3.2
		c1.1,0,2.1-0.5,3.2-1.5c1.1-1.1,1.6-2.3,1.6-3.6c0-1.3-0.3-2.3-0.8-2.8c0.3-2.1-0.4-4.2-1.7-6.3c-1.7-2.5-4.3-3.7-7.6-3.7
		c-3.2,0-5.9,1.3-8,4c-2.1,2.7-3.2,5.9-3.2,9.5c0,3.1,1.1,5.8,3.1,8c1.2,1.3,3.2,2.9,6,4.7c2.4,1.5,3.6,2.5,3.9,3.3
		c0.3,0.8,0.4,1.5,0.4,2.1c0,1.2-0.3,2.1-0.8,2.9c-0.5,0.8-1.1,1.2-1.7,1.2c-0.8,0-1.7-0.8-2.7-2.3c-0.4-0.3-0.5-0.9-0.7-2.1
		c-0.1-0.9-0.8-1.7-1.9-2.4c-0.7-0.4-1.6-0.5-2.7-0.5c-2.8,0-4.4,0.5-5,1.7c-0.1,0.5,0.4,1.7,1.6,3.7c1.3,2.3,2.9,4.3,4.7,5.8
		c2.1,2,4.3,2.9,6.4,2.9c3.2,0,6-1.2,8.4-3.6c2.4-2.4,3.6-5.2,3.6-8.6C259.7,112,259.1,109.7,257.7,108z"/>
	<path class="st4" d="M229.5,83.4c-3.1,0-5,0.7-5.6,1.9c-0.1,0.4-0.3,0.8-0.3,1.2c0,0.4,0.1,0.8,0.3,1.5c0.1,0.7,0.3,1.2,0.3,1.6
		s0,0.7-0.1,0.9l-7,20.8l-4.4-17.3c-0.1-1.5-0.3-2.9-0.4-4.6c-0.1-1.5-0.9-2.7-2.3-3.7c-1.1-0.8-2.4-1.2-4-1.2
		c-1.2,0-2.1,0.3-3.2,0.8c-1.2,0.5-1.7,1.3-1.7,2.4c0,0.3,0,0.7,0.1,1.2c0.1,0.5,0.1,0.9,0.1,1.2c0,0.4,0,0.7-0.1,1.1l-6,17.7
		l-4.3-17.3c0-0.1-0.1-1.3-0.1-3.5c0-1.3-0.4-2.4-1.2-3.1c-0.5-0.5-1.7-0.7-3.3-0.7c-3.1,0-4.7,0.7-5.2,2c-0.3,0.7-0.4,1.2-0.4,1.9
		c0,0.9,0.3,2,0.8,3.3c0.7,1.7,1.2,2.8,1.3,3.5l6.3,24.6c0.1,1.2,0.4,2.5,0.5,3.7c0.1,1.3,0.8,2.3,1.7,2.8c0.8,0.5,1.6,0.8,2.5,0.8
		c2.7,0,4.8-1.5,6.7-4.4c0.4-0.7,0.7-1.7,0.8-2.8c0.1-1.5,0.3-2.5,0.4-3.1l4.2-14.3l4.3,15.9c0.1,0.4,0.1,1.5,0.1,3.1
		c0,1.1,0.4,2.1,1.2,2.9c1.5,1.7,3.5,2.5,5.8,2.5c1.5,0,2.9-0.4,4.2-1.3c1.2-0.8,1.7-2.1,1.7-4c0-0.4,0-0.8-0.1-1.5v-1.6
		c0-1.1,0.1-2,0.4-2.7l7.9-23.8c0.3-0.7,0.9-1.7,1.9-3.1c0.8-1.1,1.3-2,1.3-2.8c0-0.4-0.1-0.7-0.3-1.1C234,84,232.3,83.4,229.5,83.4
		z"/>
</g>
</svg>
