<?xml version="1.0" encoding="utf-8"?>
<!-- Generator: Adobe Illustrator 27.0.0, SVG Export Plug-In . SVG Version: 6.00 Build 0)  -->
<svg version="1.1" id="Layer_1" xmlns="http://www.w3.org/2000/svg" xmlns:xlink="http://www.w3.org/1999/xlink" x="0px" y="0px"
	 width="360px" height="360px" viewBox="0 0 360 360" enable-background="new 0 0 360 360" xml:space="preserve">
<circle fill-rule="evenodd" clip-rule="evenodd" fill="#80D25B" cx="180" cy="181" r="160"/>
<path fill-rule="evenodd" clip-rule="evenodd" fill="#FFFFFF" d="M94.7,197L94.7,197c5.9,0,10.7,4.8,10.7,10.7V261
	c0,5.9-4.8,10.7-10.7,10.7l0,0c-5.9,0-10.7-4.8-10.7-10.7v-53.3C84,201.8,88.8,197,94.7,197z"/>
<path fill-rule="evenodd" clip-rule="evenodd" fill="#FFFFFF" d="M137.3,181L137.3,181c5.9,0,10.7,4.8,10.7,10.7V261
	c0,5.9-4.8,10.7-10.7,10.7l0,0c-5.9,0-10.7-4.8-10.7-10.7v-69.3C126.7,185.8,131.5,181,137.3,181z"/>
<path fill-rule="evenodd" clip-rule="evenodd" fill="#FFFFFF" d="M180,159.7L180,159.7c5.9,0,10.7,4.8,10.7,10.7V261
	c0,5.9-4.8,10.7-10.7,10.7l0,0c-5.9,0-10.7-4.8-10.7-10.7v-90.7C169.3,164.5,174.1,159.7,180,159.7z"/>
<path fill-rule="evenodd" clip-rule="evenodd" fill="#FFFFFF" d="M222.7,127.7L222.7,127.7c5.9,0,10.7,4.8,10.7,10.7V261
	c0,5.9-4.8,10.7-10.7,10.7l0,0c-5.9,0-10.7-4.8-10.7-10.7V138.3C212,132.5,216.8,127.7,222.7,127.7z"/>
<path fill-rule="evenodd" clip-rule="evenodd" fill="#FFFFFF" d="M265.3,90.3L265.3,90.3c5.9,0,10.7,4.8,10.7,10.7v160
	c0,5.9-4.8,10.7-10.7,10.7l0,0c-5.9,0-10.7-4.8-10.7-10.7V101C254.7,95.1,259.5,90.3,265.3,90.3z"/>
</svg>
