<?xml version="1.0" encoding="utf-8"?>
<!-- Generator: Adobe Illustrator 27.0.0, SVG Export Plug-In . SVG Version: 6.00 Build 0)  -->
<svg version="1.1" id="Layer_1" xmlns="http://www.w3.org/2000/svg" xmlns:xlink="http://www.w3.org/1999/xlink" x="0px" y="0px"
	 width="360px" height="360px" viewBox="0 0 360 360" enable-background="new 0 0 360 360" xml:space="preserve">
<path fill="#2A4F03" d="M317.1,185.1H287v20.2c2.5,0,5.3,0,7.8,0c4.5,36.5-15.9,61.8-54.9,68c-0.2,3.3-0.3,6.2-0.5,9.7
	c-33.3,0-66.6,0-100.5,0c-0.3-3-0.6-6.2-1.1-10.4c-38.4,4.9-72.6-28.2-66.1-67.4c2.2,0,4.5,0,6.8,0V185H48.9
	c-4.1,60.5,8.8,86.6,65.6,109.6c0.5-0.6,0.8-1.1,1.3-1.8c0.3,4.1,0.6,8.3,0.8,12.6c48.4,0,96.2,0,144.4,0
	C255.9,269.5,326.6,296.4,317.1,185.1z"/>
<path fill="#D36011" d="M119.1,267.9l149.7-24.2c4.1-0.6,6.8-4.5,6.2-8.6l-0.3-2.2c-0.6-4.1-4.5-6.8-8.6-6.2l-149.7,24.2
	c-4.1,0.6-6.8,4.5-6.2,8.6l0.3,2.2C111.2,265.8,115,268.7,119.1,267.9z"/>
<path fill="#D36011" d="M94.5,247.2l130.1-21c4.1-0.6,6.8-4.5,6.2-8.6l-0.3-2.2c-0.6-4.1-4.5-6.8-8.6-6.2l-130.1,21
	c-4.1,0.6-6.8,4.5-6.2,8.6l0.3,2.2C86.7,245.1,90.5,248,94.5,247.2z"/>
<path fill="#D36011" d="M83.5,226.5l111.8-18.2c4.1-0.6,6.8-4.5,6.2-8.6l-0.3-2.2c-0.6-4.1-4.5-6.8-8.6-6.2L80.8,209.5
	c-4.1,0.6-6.8,4.5-6.2,8.6l0.3,2.2C75.5,224.4,79.3,227.1,83.5,226.5z"/>
<rect x="27.9" y="121.4" transform="matrix(0.9992 -3.973096e-02 3.973096e-02 0.9992 -5.0402 7.3777)" fill="#EAC300" width="310.4" height="18.2"/>
<rect x="21" y="79.2" transform="matrix(0.9871 -0.1599 0.1599 0.9871 -11.8527 29.3112)" fill="#EAC300" width="310.4" height="18.2"/>
<path fill="#D36011" d="M129.5,110.3c0,10,0.2,20.1,0,30.3c-0.2,7.8-4,11.9-10.8,11.8c-7.2-0.2-10.8-4.3-10.8-11
	c-0.3-20.9-0.3-41.9,0-62.7c0.2-6.8,5.4-11.6,11.1-10.8c6.5,1,10.7,4.5,10.5,11.6C129.5,89.6,129.5,99.9,129.5,110.3z"/>
<path fill="#D36011" d="M96.4,112.6c0,8.8,0.2,17.7,0,26.4c-0.2,6.8-4,10.4-10.8,10.4c-7.2,0-10.8-3.8-10.8-9.7
	c-0.3-18.3-0.3-36.6,0-54.9c0.2-5.9,5.4-10.2,11.1-9.6c6.5,0.8,10.7,4,10.5,10.2C96.4,94.6,96.4,103.6,96.4,112.6z"/>
<path fill="#D36011" d="M165.8,104.8c0,10.8,0.2,21.7,0,32.6c-0.2,7.8-4,11.9-10.7,11.9s-10.8-4-11-11.8c-0.2-22-0.2-44,0-65.9
	c0-7.3,4.8-11.9,11.1-11.8c6.2,0.2,10.4,4.9,10.5,12.4C166,83.2,165.8,94,165.8,104.8z"/>
</svg>
