<?xml version="1.0" encoding="utf-8"?>
<!-- Generator: Adobe Illustrator 27.0.0, SVG Export Plug-In . SVG Version: 6.00 Build 0)  -->
<svg version="1.1" id="Layer_1" xmlns="http://www.w3.org/2000/svg" xmlns:xlink="http://www.w3.org/1999/xlink" x="0px" y="0px"
	 viewBox="0 0 360 360" style="enable-background:new 0 0 360 360;" xml:space="preserve">
<style type="text/css">
	.st0{fill-rule:evenodd;clip-rule:evenodd;fill:#C94C63;}
	.st1{fill-rule:evenodd;clip-rule:evenodd;fill:#9F5757;}
	.st2{fill-rule:evenodd;clip-rule:evenodd;fill:#D8D8D8;}
	.st3{fill-rule:evenodd;clip-rule:evenodd;fill:#FFAF40;}
</style>
<path class="st0" d="M52.8,183c0-29.2,22.4-60.9,50.1-70.1c0,0,51.2-19.6,77.1-19.6s77.1,19.6,77.1,19.6
	c27.7,9.5,50.1,40.7,50.1,70.1v100.7H52.8V183z"/>
<rect x="52.8" y="283.7" class="st1" width="254.4" height="26.5"/>
<circle class="st2" cx="180" cy="209.5" r="58.3"/>
<path class="st0" d="M180,183c-5.8,0-10.6-4.7-10.6-10.6s4.7-10.6,10.6-10.6c5.8,0,10.6,4.7,10.6,10.6S185.8,183,180,183z
	 M200.7,193.1c-3.7-4.5-3-11.2,1.6-14.9c4.5-3.7,11.2-3,14.9,1.6c3.7,4.5,3,11.2-1.6,14.9S204.4,197.6,200.7,193.1z M205.8,215.4
	c1.3-5.7,7-9.2,12.8-7.9c5.7,1.3,9.2,7,7.9,12.8c-1.3,5.7-7,9.2-12.8,8C208.1,226.7,204.6,221,205.8,215.4z M191.5,233.4
	c5.3-2.6,11.6-0.4,14.2,4.8c2.6,5.3,0.4,11.6-4.8,14.2c-5.3,2.6-11.6,0.4-14.2-4.8C184,242.3,186.2,236,191.5,233.4z M168.5,233.4
	c5.3,2.6,7.4,8.9,4.8,14.2s-8.9,7.4-14.2,4.8s-7.4-8.9-4.8-14.2C157,233,163.2,230.8,168.5,233.4z M154.2,215.4
	c1.3,5.7-2.3,11.4-7.9,12.8c-5.7,1.3-11.4-2.3-12.8-8c-1.4-5.7,2.3-11.4,7.9-12.8C147.2,206.1,152.9,209.7,154.2,215.4z
	 M159.3,193.1c-3.7,4.5-10.4,5.3-14.9,1.6c-4.5-3.7-5.3-10.4-1.6-14.9c3.7-4.5,10.4-5.3,14.9-1.6C162.3,181.9,163,188.5,159.3,193.1
	z"/>
<path class="st3" d="M339,108.8V84.9c0-16-13.1-29.1-29.1-29.1H50.1c-16,0-29.1,13.1-29.1,29.1v23.8v37.1c0,5.8,4.7,10.6,10.5,10.6
	h58.3c5.8,0,10.5-4.8,10.5-10.6v-31.7h159v31.8c0,5.8,4.7,10.6,10.5,10.6h58.3c5.8,0,10.5-4.8,10.5-10.6v-37.2H339z"/>
</svg>
