<?xml version="1.0" encoding="utf-8"?>
<!-- Generator: Adobe Illustrator 27.0.0, SVG Export Plug-In . SVG Version: 6.00 Build 0)  -->
<svg version="1.1" id="Layer_1" xmlns="http://www.w3.org/2000/svg" xmlns:xlink="http://www.w3.org/1999/xlink" x="0px" y="0px"
	 width="360px" height="360px" viewBox="0 0 360 360" enable-background="new 0 0 360 360" xml:space="preserve">
<g>
	<path fill-rule="evenodd" clip-rule="evenodd" fill="#6B6B6B" d="M249.6,72c-19.5-5.2-42.9-6.8-69.3-6.8c-28.4,0-53.5,1.9-73.9,8
		l0,0c-4.7,1.3-9.7,2.1-14.8,2.1c-25.9,0-47.3-18.8-51.5-43.6c-10,7.6-16.4,19.6-16.4,33.2c0,21.6,16.4,39.3,37.3,41.5
		c-7.3,12.8-11.3,29.3-11.3,50.5c0,77.7,52.7,140.8,130.4,140.8s130.4-63.1,130.4-140.8c0-21.3-4-37.9-11.3-50.7
		c20.8-2.4,36.8-20,36.8-41.3c0-13.5-6.4-25.5-16.4-33.2c-4.1,24.7-25.6,43.6-51.5,43.6C261.6,75.5,255.5,74.3,249.6,72z"/>
	<ellipse fill-rule="evenodd" clip-rule="evenodd" fill="#A0A0A0" cx="159.5" cy="308.3" rx="20.9" ry="20.9"/>
	<circle fill-rule="evenodd" clip-rule="evenodd" fill="#A0A0A0" cx="201.2" cy="308.3" r="20.9"/>
	<g>
		<circle fill-rule="evenodd" clip-rule="evenodd" fill="#E77CFA" cx="112.6" cy="151.8" r="57.3"/>
		<ellipse fill-rule="evenodd" clip-rule="evenodd" fill="#FFFFFF" cx="109.9" cy="149.2" rx="39.1" ry="39.1"/>
		<circle fill-rule="evenodd" clip-rule="evenodd" fill="#4796E7" cx="109.9" cy="149.2" r="18.3"/>
	</g>
	<circle fill-rule="evenodd" clip-rule="evenodd" fill="#FFFFFF" cx="102" cy="141.4" r="10.4"/>
	<g>
		<circle fill-rule="evenodd" clip-rule="evenodd" fill="#E77CFA" cx="248.2" cy="151.8" r="57.3"/>
		<circle fill-rule="evenodd" clip-rule="evenodd" fill="#FFFFFF" cx="250.8" cy="149.2" r="39.1"/>
		<circle fill-rule="evenodd" clip-rule="evenodd" fill="#4796E7" cx="250.8" cy="149.2" r="18.3"/>
	</g>
	<circle fill-rule="evenodd" clip-rule="evenodd" fill="#FFFFFF" cx="243" cy="141.4" r="10.4"/>
	<path fill-rule="evenodd" clip-rule="evenodd" fill="#E77CFA" d="M216.8,226.6c0-0.5,0-1.2,0-1.7c0-20.1-16.4-36.5-36.5-36.5
		s-36.5,16.4-36.5,36.5c0,0.1,0,0.3,0,0.4c1.7-0.3,3.5-0.4,5.2-0.4c12.8,0,23.9,7.7,28.7,18.8c4.8-11.1,15.9-18.8,28.7-18.8
		C210,224.9,213.6,225.4,216.8,226.6z"/>
	<path fill-rule="evenodd" clip-rule="evenodd" fill="#A0A0A0" d="M41.3,190.9c20.5,4.3,41.6,20,55.3,43.7s16.8,49.9,10.3,69.9
		c-20.5-4.3-41.6-20-55.3-43.7S34.6,210.9,41.3,190.9z"/>
	<path fill-rule="evenodd" clip-rule="evenodd" fill="#A0A0A0" d="M320.7,190.9c-20.5,4.3-41.6,20-55.3,43.7s-16.8,49.9-10.3,69.9
		c20.5-4.3,41.6-20,55.3-43.7C324.1,237,327.3,210.9,320.7,190.9z"/>
</g>
</svg>
