<?xml version="1.0" encoding="utf-8"?>
<!-- Generator: Adobe Illustrator 27.0.0, SVG Export Plug-In . SVG Version: 6.00 Build 0)  -->
<svg version="1.1" id="Layer_1" xmlns="http://www.w3.org/2000/svg" xmlns:xlink="http://www.w3.org/1999/xlink" x="0px" y="0px"
	 width="360px" height="360px" viewBox="0 0 360 360" enable-background="new 0 0 360 360" xml:space="preserve">
<path fill="#FFBE1B" d="M341.7,124.6c-4.9-1.2-9.5-3.8-13.1-7.4s-6.2-8.1-7.4-13.1l-0.4-1.7l-0.4,1.7c-1.2,4.9-3.8,9.5-7.4,13.1
	s-8.1,6.2-13.1,7.4l-1.7,0.4l1.7,0.4c4.9,1.2,9.5,3.8,13.1,7.4s6.2,8.1,7.4,13.1l0.4,1.7l0.4-1.7c1.2-4.9,3.8-9.5,7.4-13.1
	s8.1-6.2,13.1-7.4l1.7-0.4L341.7,124.6z"/>
<path fill="#FFBE1B" d="M188.5,72.6c-2.8-0.7-5.3-2.1-7.4-4.2c-2-2-3.5-4.6-4.2-7.4l-0.2-1l-0.2,1c-0.7,2.8-2.1,5.3-4.2,7.4
	c-2,2-4.6,3.5-7.4,4.2l-1,0.2l1,0.2c2.8,0.7,5.3,2.1,7.4,4.2c2,2,3.5,4.6,4.2,7.4l0.2,1l0.2-1c0.7-2.8,2.1-5.3,4.2-7.4
	c2-2,4.6-3.5,7.4-4.2l1-0.2L188.5,72.6z"/>
<path fill="#FFBE1B" d="M271.3,39.8c-6.8-1.7-13.1-5.2-18.1-10.2s-8.5-11.2-10.2-18l-0.5-2.4l-0.6,2.4c-1.7,6.8-5.2,13.1-10.2,18
	c-5,5-11.2,8.5-18,10.2l-2.4,0.6l2.4,0.6c6.8,1.7,13.1,5.2,18,10.2c5,5,8.5,11.2,10.2,18l0.6,2.4l0.6-2.4c1.7-6.8,5.2-13.1,10.2-18
	c5-5,11.2-8.5,18.1-10.2l2.4-0.6L271.3,39.8z"/>
<path fill="#5D8EF9" d="M98.4,301c-4.9-1.2-9.5-3.8-13.1-7.4s-6.2-8.1-7.4-13.1l-0.4-1.7l-0.4,1.7c-1.2,4.9-3.8,9.5-7.4,13.1
	s-8.1,6.2-13.1,7.4l-1.7,0.4l1.7,0.4c4.9,1.2,9.5,3.8,13.1,7.4s6.2,8.1,7.4,13.1l0.4,1.7l0.4-1.7c1.2-4.9,3.8-9.5,7.4-13.1
	s8.1-6.2,13.1-7.4l1.7-0.4L98.4,301z"/>
<path fill="#3C26FE" d="M215.2,312c-7.3-1.8-14.2-5.7-19.6-11.1c-5.4-5.4-9.3-12.1-11.1-19.6l-0.6-2.5l-0.6,2.5
	c-1.8,7.3-5.7,14.2-11.1,19.6c-5.4,5.4-12.1,9.3-19.6,11.1l-2.5,0.6l2.5,0.6c7.3,1.8,14.2,5.7,19.6,11.1c5.4,5.4,9.3,12.1,11.1,19.6
	l0.6,2.5l0.6-2.5c1.8-7.3,5.7-14.2,11.1-19.6c5.4-5.4,12.1-9.3,19.6-11.1l2.5-0.6L215.2,312z"/>
<g>
	<path fill="#7180FD" d="M291.2,76.9L81.9,183.2l23.9,83.4L291.2,76.9z"/>
	<path fill="#FFE37B" d="M291.2,76.9L16,157.9l65.9,25.3L291.2,76.9z"/>
	<path fill="#3C26FE" d="M124.7,212.9l-18.9,53.7l57.5-31.9L124.7,212.9z"/>
	<path fill="#FFBE1B" d="M291.2,76.9L232,273.5l-107.3-60.6L291.2,76.9z"/>
</g>
</svg>
