<?xml version="1.0" encoding="utf-8"?>
<!-- Generator: Adobe Illustrator 27.0.0, SVG Export Plug-In . SVG Version: 6.00 Build 0)  -->
<svg version="1.1" id="Layer_1" xmlns="http://www.w3.org/2000/svg" xmlns:xlink="http://www.w3.org/1999/xlink" x="0px" y="0px"
	 viewBox="0 0 360 360" style="enable-background:new 0 0 360 360;" xml:space="preserve">
<style type="text/css">
	.st0{fill:#00DDB3;}
	.st1{fill:#007D7C;}
	.st2{fill:#E8EAE9;}
	.st3{fill:#CED6E0;}
	.st4{fill:#FF8EEC;}
	.st5{fill:#F05540;}
</style>
<path class="st0" d="M167,214.6c5.2-39.4-22.6-66-62.1-59.5C99.7,194.5,127.5,221.1,167,214.6z"/>
<path class="st1" d="M177.3,228.8l-58.8-60.2l62.1,56.9L177.3,228.8z"/>
<path class="st1" d="M151.5,201.7l-4.6-23.3l7.1,22.6L151.5,201.7z M145.6,192.6l-24-3.9l23.3,6.4L145.6,192.6z M134.7,184.2l2.6,2
	l-5.8-19.4L134.7,184.2z"/>
<path class="st0" d="M188.3,195.8c-2-39.4,28.4-64,66.6-54.3C256.9,181,227.1,205.5,188.3,195.8z"/>
<path class="st1" d="M176.7,208.8l64-55l-66.6,51.1L176.7,208.8z"/>
<path class="st1" d="M205.1,184.2l6.4-23.3l-9,22.6L205.1,184.2z M211.6,175.8l24-2l-23.3,3.9L211.6,175.8z M223.3,167.4l-2.6,2.6
	l7.8-18.8L223.3,167.4z M172.8,129.9h9.7v108h-9.7V129.9z"/>
<path class="st2" d="M118.5,252.1l10.4,70.5c1.3,7.1,7.1,12.3,14.2,12.3h69.2c7.1,0,13.6-5.2,14.2-12.3l10.4-70.5H118.5z"/>
<path class="st3" d="M118.5,252.1l1.3,8.4h115.8l1.3-8.4H118.5z"/>
<path class="st2" d="M234.9,253.4H120.4c-6.4,0-12.3-5.2-12.3-12.3c0-6.4,5.2-12.3,12.3-12.3h115.1c6.4,0,12.3,5.2,12.3,12.3
	C247.2,248.2,242,253.4,234.9,253.4z"/>
<path class="st4" d="M234.2,114.4c5.8-13-2-27.2-14.8-30.4c12.3-5.2,17.4-20.7,9-32.4C220,40,203.9,39.3,194.8,49
	c1.3-13-9-25.2-23.3-24s-22.6,14.8-18.8,27.8c-10.4-7.8-26.5-4.6-32.4,8.4s2,27.2,14.8,30.4c-12.3,5.2-17.4,20.7-9,32.4
	s24.6,12.3,33.6,2.6c-1.3,13,9,25.2,23.3,24s22.6-14.8,18.8-27.8C212.3,130.5,228.4,127.3,234.2,114.4z"/>
<path class="st5" d="M178,108.5c11.4,0,20.7-9.2,20.7-20.7s-9.2-20.7-20.7-20.7s-20.7,9.2-20.7,20.7
	C157.3,99.3,166.5,108.5,178,108.5z"/>
<path class="st4" d="M178,97.5c5.3,0,9.7-4.3,9.7-9.7c0-5.3-4.3-9.7-9.7-9.7s-9.7,4.3-9.7,9.7C168.3,93.2,172.6,97.5,178,97.5z"/>
</svg>
