<?xml version="1.0" encoding="utf-8"?>
<!-- Generator: Adobe Illustrator 27.0.0, SVG Export Plug-In . SVG Version: 6.00 Build 0)  -->
<svg version="1.1" id="Layer_1" xmlns="http://www.w3.org/2000/svg" xmlns:xlink="http://www.w3.org/1999/xlink" x="0px" y="0px"
	 viewBox="0 0 360 360" style="enable-background:new 0 0 360 360;" xml:space="preserve">
<style type="text/css">
	.st0{fill:#DBD9D9;}
	.st1{fill:#AEAEAF;}
	.st2{fill:#FF8EEC;}
	.st3{fill:#EAEAEA;}
	.st4{fill:#2D2D2D;}
</style>
<path class="st0" d="M168.1,66.6v78c-19.5,1.9-38.2,8.3-54.8,18.7c-16.5,10.4-30.4,24.6-40.5,41.3v-138c0-12.6,5-24.7,13.9-33.7
	s21-13.9,33.7-13.9c12.6,0,24.7,5,33.7,13.9C163.1,41.9,168.1,54,168.1,66.6z"/>
<path class="st1" d="M287.1,66.6v138c-10.1-16.8-23.9-30.9-40.5-41.3c-16.5-10.4-35.3-16.8-54.8-18.7v-78c0-12.6,5-24.7,13.9-33.7
	c8.9-8.9,21-13.9,33.7-13.9c12.6,0,24.7,5,33.7,13.9C282.1,41.9,287.1,54,287.1,66.6z"/>
<path class="st0" d="M287.1,66.6v138c-10.1-16.8-23.9-30.9-40.5-41.3c-16.5-10.4-35.3-16.8-54.8-18.7v-78c0-12.6,5-24.7,13.9-33.7
	c8.9-8.9,21-13.9,33.7-13.9c12.6,0,24.7,5,33.7,13.9C282.1,41.9,287.1,54,287.1,66.6z"/>
<path class="st2" d="M138.3,66.6v84.6c-12.9,4.5-25,11.1-35.7,19.6V66.6c0-4.7,1.9-9.3,5.2-12.6c3.3-3.3,7.9-5.2,12.6-5.2
	c4.7,0,9.3,1.9,12.6,5.2C136.5,57.3,138.3,61.9,138.3,66.6z"/>
<path class="st3" d="M305,269c0,18.9-7.5,37.1-20.9,50.5c-13.4,13.4-31.6,20.9-50.5,20.9H126.4c-18.9,0-37.1-7.5-50.5-20.9
	C62.5,306.1,55,287.9,55,269c0-18.9,4.3-37.6,12.5-54.6c8.2-17,20.3-31.9,35.1-43.6c10.7-8.5,22.8-15.2,35.7-19.6
	c9.6-3.4,19.6-5.6,29.8-6.6c7.9-0.8,15.9-0.8,23.8,0c10.2,1,20.2,3.2,29.8,6.6c12.9,4.5,25,11.1,35.7,19.6
	c14.8,11.7,26.8,26.6,35.1,43.6C300.7,231.5,305,250.1,305,269z"/>
<path class="st0" d="M159.2,328.5c-7.1,0-13.9-2.8-18.9-7.9c-5-5-7.8-11.8-7.9-18.9c0-1.6,0.6-3.1,1.7-4.2s2.6-1.7,4.2-1.7
	c1.6,0,3.1,0.6,4.2,1.7s1.7,2.6,1.7,4.2c0,3.9,1.6,7.7,4.4,10.5c2.8,2.8,6.6,4.4,10.5,4.4c3.9,0,7.7-1.6,10.5-4.4
	c2.8-2.8,4.4-6.6,4.4-10.5c0-1.6,0.6-3.1,1.7-4.2s2.6-1.7,4.2-1.7s3.1,0.6,4.2,1.7s1.7,2.6,1.7,4.2c0,7.1-2.8,13.9-7.9,18.9
	C173.1,325.7,166.3,328.5,159.2,328.5z"/>
<path class="st0" d="M200.8,328.5c-7.1,0-13.9-2.8-18.9-7.9c-5-5-7.8-11.8-7.9-18.9c0-1.6,0.6-3.1,1.7-4.2c1.1-1.1,2.6-1.7,4.2-1.7
	c1.6,0,3.1,0.6,4.2,1.7c1.1,1.1,1.7,2.6,1.7,4.2c0,3.9,1.6,7.7,4.4,10.5c2.8,2.8,6.6,4.4,10.5,4.4c3.9,0,7.7-1.6,10.5-4.4
	c2.8-2.8,4.4-6.6,4.4-10.5c0-1.6,0.6-3.1,1.7-4.2c1.1-1.1,2.6-1.7,4.2-1.7c1.6,0,3.1,0.6,4.2,1.7c1.1,1.1,1.7,2.6,1.7,4.2
	c0,7.1-2.8,13.9-7.9,18.9C214.7,325.7,207.9,328.5,200.8,328.5z"/>
<path class="st2" d="M257.4,66.6v104.2c-10.7-8.5-22.8-15.2-35.7-19.6V66.6c0-4.7,1.9-9.3,5.2-12.6c3.3-3.3,7.9-5.2,12.6-5.2
	c4.7,0,9.3,1.9,12.6,5.2C255.5,57.3,257.4,61.9,257.4,66.6z"/>
<path class="st0" d="M186,286.9H174v17.9H186V286.9z"/>
<path class="st2" d="M180,298.8l-13.3-7.1c-1.4-0.8-2.6-1.9-3.4-3.3c-0.8-1.4-1.2-3-1.2-4.6c0-1.1,0.1-2.2,0.5-3.3
	c0.4-1.1,1-2,1.8-2.8c0.8-0.8,1.7-1.5,2.7-1.9c1-0.5,2.1-0.7,3.3-0.7h19.2c1.1,0,2.2,0.3,3.3,0.7c1,0.5,1.9,1.1,2.7,1.9
	c0.8,0.8,1.4,1.8,1.8,2.8c0.4,1.1,0.6,2.2,0.5,3.3c0,1.6-0.4,3.2-1.2,4.6c-0.8,1.4-2,2.5-3.4,3.3L180,298.8z"/>
<path class="st4" d="M230.6,251.1c4.9,0,8.9-4,8.9-8.9s-4-8.9-8.9-8.9s-8.9,4-8.9,8.9S225.7,251.1,230.6,251.1z"/>
<path class="st4" d="M129.4,251.1c4.9,0,8.9-4,8.9-8.9s-4-8.9-8.9-8.9c-4.9,0-8.9,4-8.9,8.9S124.5,251.1,129.4,251.1z"/>
</svg>
