<?xml version="1.0" encoding="utf-8"?>
<!-- Generator: Adobe Illustrator 27.0.0, SVG Export Plug-In . SVG Version: 6.00 Build 0)  -->
<svg version="1.1" id="Layer_1" xmlns="http://www.w3.org/2000/svg" xmlns:xlink="http://www.w3.org/1999/xlink" x="0px" y="0px"
	 viewBox="0 0 360 360" style="enable-background:new 0 0 360 360;" xml:space="preserve">
<style type="text/css">
	.st0{fill:#0B4870;}
	.st1{fill:#0E538C;}
	.st2{fill:#2A94F4;}
	.st3{fill:#FFBE55;}
	.st4{fill:#D3D3D3;}
	.st5{fill:url(#SVGID_1_);}
	.st6{fill:#CCE9FF;}
	.st7{fill:#7EC1B4;}
</style>
<path class="st0" d="M234.5,164.7l15.5,15.6v7.1c0,0.1,0,0.2,0,0.3v118.1h18.2V177.4h0.1V122c0-5.1-4-9.1-9.1-9.1s-9.1,4-9.1,9.1
	v32.6l-2.7-2.5c-3.4-3.7-9.3-3.7-12.7,0C231,155.5,231,161.2,234.5,164.7z"/>
<path class="st1" d="M206,238.5c-0.8,1.3-1.2,2.9-1.2,4.4c0,4.8,3.9,8.6,8.6,8.6h91.6c1.4,0,3-0.3,4.2-1.1c1.3-0.8,2.3-1.8,3.1-3.1
	c0.8-1.2,1.2-2.8,1.2-4.2c0-1.4-0.3-3-1-4.2l-45.8-86.3c-0.8-1.3-1.8-2.5-3.2-3.3c-1.3-0.8-2.9-1.2-4.4-1.2c-1.6,0-3.1,0.4-4.4,1.2
	s-2.4,2-3.2,3.3l-18.3,34.3l-4.9,9.2l-4.9,9.2l-15.3,29L206,238.5z"/>
<path class="st1" d="M211.8,196.2c-0.7,1.2-1.1,2.5-1.1,3.9c0,1,0.2,2,0.6,2.9s1,1.8,1.7,2.4c0.7,0.7,1.6,1.2,2.4,1.7
	c0.9,0.3,1.9,0.6,2.9,0.6h81.5c1.3,0,2.7-0.3,3.8-1c1.1-0.7,2.1-1.6,2.8-2.7c0.7-1.1,1.1-2.4,1.1-3.8s-0.2-2.7-0.9-3.8l-40.8-76.8
	c-0.7-1.2-1.7-2.2-2.8-3c-1.2-0.7-2.5-1.1-4-1.1c-1.4,0-2.8,0.3-4,1.1c-1.2,0.7-2.2,1.8-2.8,3l-16.2,30.6l-4.3,8.2l-4.3,8.1
	l-13.6,25.9L211.8,196.2z"/>
<path class="st1" d="M215.6,156.9c-0.7,1.1-1,2.3-1,3.5c0,1.2,0.3,2.4,0.9,3.5c0.7,1.1,1.6,2,2.5,2.7c1.1,0.7,2.3,1,3.5,1h75.1
	c1.2,0,2.4-0.3,3.4-0.9c1.1-0.6,2-1.4,2.5-2.5c0.7-1,1-2.2,1-3.4s-0.2-2.4-0.8-3.5l-37.6-70.8c-0.6-1.1-1.6-2.1-2.5-2.8
	c-1.1-0.7-2.3-1-3.7-1c-1.3,0-2.5,0.3-3.7,1c-1.1,0.7-2,1.6-2.5,2.8l-15,28.1l-4,7.5l-4,7.5l-12.6,23.8L215.6,156.9z"/>
<path class="st0" d="M281.9,164.7l15.5,15.6v7.1c0,0.1,0,0.2,0,0.3v118.1h18.2V177.4h0.1V122c0-5.1-4-9.1-9.1-9.1
	c-5.1,0-9.1,4-9.1,9.1v32.6l-2.8-2.5c-3.4-3.7-9.3-3.7-12.7,0C278.3,155.5,278.3,161.2,281.9,164.7z"/>
<path class="st2" d="M259.2,243.2c-0.7,1.2-1.1,2.5-1.1,3.9c0,1.3,0.3,2.7,1,3.9c0.7,1.2,1.7,2.2,2.8,2.9c1.2,0.7,2.5,1,3.9,1h82
	c1.3,0,2.7-0.3,3.8-1c1.1-0.7,2.1-1.6,2.8-2.8c0.7-1.1,1.1-2.4,1.1-3.8s-0.2-2.7-0.9-3.8l-41-77.2c-0.7-1.2-1.7-2.2-2.9-3
	c-1.2-0.7-2.5-1.1-4-1.1c-1.4,0-2.8,0.3-4,1.1c-1.2,0.7-2.2,1.8-2.9,3l-16.1,30.8l-4.3,8.2l-4.3,8.2l-13.8,26L259.2,243.2z"/>
<path class="st2" d="M264.4,204.9c-0.7,1-1,2.2-1,3.4s0.3,2.4,0.9,3.4c0.6,1.1,1.4,1.9,2.5,2.5c1,0.6,2.2,0.9,3.4,0.9h73
	c1.2,0,2.3-0.3,3.3-0.9c1-0.6,1.9-1.4,2.5-2.4c0.6-1,1-2.2,1-3.3c0-1.2-0.2-2.3-0.8-3.4L313,136.4c-0.6-1.1-1.4-2-2.5-2.7
	s-2.3-1-3.5-1s-2.4,0.3-3.5,1c-1.1,0.7-1.9,1.6-2.5,2.7l-14.5,27.5l-3.9,7.3l-3.9,7.3l-12.3,23L264.4,204.9z"/>
<path class="st2" d="M267.8,169.5c-0.6,1-0.9,2.1-0.9,3.2c0,0.8,0.1,1.7,0.4,2.4c0.3,0.8,0.8,1.4,1.3,2c0.6,0.6,1.3,1,2,1.3
	c0.8,0.3,1.6,0.4,2.4,0.4h67.3c1.1,0,2.1-0.3,3.1-0.8c1-0.6,1.8-1.3,2.3-2.2s0.9-2,0.9-3.1c0-1.1-0.2-2.2-0.8-3.1l-33.5-63.3
	c-0.6-1-1.3-1.9-2.3-2.4s-2.1-0.9-3.2-0.9c-1.1,0-2.2,0.3-3.2,0.9c-1,0.6-1.8,1.4-2.3,2.4l-13.5,25.3l-3.5,6.8l-3.5,6.8l-11.3,21.4
	L267.8,169.5z"/>
<path class="st3" d="M355.4,310.8c0,0.3,0.1,0.7,0.1,1.1c0,3.3-2.7,6-6,6H10.4c-0.8,0-1.6-0.1-2.3-0.4s-1.4-0.8-2-1.3s-1-1.2-1.3-2
	c-0.2-0.7-0.3-1.4-0.3-2.2c0-0.3,0-0.8,0.1-1.1c-0.1-0.3-0.1-0.7-0.1-1.1c0-0.8,0.1-1.6,0.4-2.3c0.3-0.8,0.8-1.4,1.3-2
	c0.6-0.6,1.2-1,2-1.3c0.8-0.3,1.6-0.4,2.3-0.4h339c1.6,0,3.1,0.7,4.2,1.8c1.1,1.1,1.8,2.7,1.8,4.2
	C355.5,310.1,355.4,310.5,355.4,310.8z"/>
<path class="st3" d="M94.9,126c-14.7,10-35.1,6.1-45.3-8.4s-7-35,7.4-45.5c0.4-0.3,0.8-0.8,0.9-1.3c0.1-0.6,0.1-1.1-0.1-1.7
	s-0.6-1-1-1.2c-0.4-0.3-1-0.4-1.6-0.3c-7.2,0.8-14.2,3.3-20.2,7.5c-19.4,13.7-23.9,40.7-10.3,60s40.5,24.2,59.8,10.5
	c6-4.2,10.7-9.9,14-16.4c0.2-0.6,0.3-1.1,0.2-1.7c-0.1-0.6-0.4-1-0.8-1.4c-0.4-0.3-1-0.6-1.6-0.7C95.9,125.6,95.4,125.7,94.9,126z"
	/>
<path class="st3" d="M87.5,61.7c0,0.2,0,0.6-0.1,0.8c-0.1,0.2-0.2,0.4-0.4,0.7c-0.2,0.2-0.4,0.3-0.7,0.4c-0.2,0.1-0.4,0.1-0.8,0.1
	h-4.9v4.9c0,0.6-0.2,1-0.6,1.3s-0.9,0.6-1.3,0.6s-1-0.2-1.3-0.6s-0.6-0.9-0.6-1.3v-4.9H72c-0.6,0-1-0.2-1.3-0.6s-0.6-0.9-0.6-1.3
	s0.2-1,0.6-1.3C71,60.2,71.5,60,72,60h4.9v-4.9c0-0.6,0.2-1,0.6-1.3c0.3-0.3,0.9-0.6,1.3-0.6s1,0.2,1.3,0.6c0.3,0.3,0.6,0.9,0.6,1.3
	v4.7h4.9c0.6,0,1,0.2,1.3,0.6C87.4,60.7,87.5,61.2,87.5,61.7z"/>
<path class="st3" d="M80.6,92.3c0,0.6-0.2,1-0.6,1.3s-0.9,0.6-1.3,0.6h-4.9v4.9c0,0.6-0.2,1-0.6,1.3S72.4,101,72,101
	c-0.4,0-1-0.2-1.3-0.6c-0.3-0.3-0.6-0.9-0.6-1.3v-4.9h-4.9c-0.3,0-0.8-0.1-1.1-0.3c-0.3-0.2-0.6-0.6-0.7-0.9s-0.2-0.8-0.1-1.1
	c0.1-0.3,0.2-0.8,0.6-1c0.2-0.2,0.4-0.3,0.7-0.4c0.2-0.1,0.4-0.1,0.8-0.1h4.9v-4.9c0-0.6,0.2-1,0.6-1.3c0.3-0.3,0.9-0.6,1.3-0.6
	c0.4,0,1,0.2,1.3,0.6c0.3,0.3,0.6,0.9,0.6,1.3v4.9h4.7C79.7,90.3,80.6,91.2,80.6,92.3z"/>
<path class="st3" d="M109.2,83.6c0,0.6-0.2,1-0.6,1.3c-0.3,0.3-0.9,0.6-1.3,0.6h-4.9v4.9c0,0.6-0.2,1-0.6,1.3
	c-0.3,0.3-0.9,0.6-1.3,0.6c-0.6,0-1-0.2-1.3-0.6c-0.3-0.3-0.6-0.9-0.6-1.3v-4.9h-4.9c-0.6,0-1-0.2-1.3-0.6c-0.3-0.3-0.6-0.9-0.6-1.3
	c0-0.6,0.2-1,0.6-1.3s0.9-0.6,1.3-0.6h4.8v-4.9c0-0.6,0.2-1,0.6-1.3s0.9-0.6,1.3-0.6c0.6,0,1,0.2,1.3,0.6c0.3,0.3,0.6,0.9,0.6,1.3
	v4.9h4.9c0.6,0,1,0.2,1.3,0.6C109,82.6,109.2,83.1,109.2,83.6z"/>
<g>
	<path class="st4" d="M242.9,246.9v7.4c0,6.8-2.5,13.1-6.8,17.7c-4.9,5.5-12.1,9-20.1,9h-14.4v-12.3c-3.5-2.7-7.9-4.1-12.3-4.1
		c-10,0-18.3,7.1-20.2,16.5H115c-1.9-9.4-10.2-16.5-20.2-16.5c-8.8,0-16.3,5.5-19.3,13.3c-13-5.8-21.9-18.7-21.9-33.8h25.3
		c4.3,3.5,9.6,5.4,15.2,5.4h22c5.8,0,11.1-2,15.2-5.4h111.1c0,0.1,0.1,0.2,0.1,0.3s0.1,0.2,0.1,0.3c0,0.1,0.1,0.2,0.1,0.3
		c0,0.2,0.1,0.3,0.1,0.6c0,0.2,0.1,0.4,0.1,0.6C242.9,246.4,242.9,246.7,242.9,246.9z"/>
	
		<linearGradient id="SVGID_1_" gradientUnits="userSpaceOnUse" x1="75.5285" y1="532.8541" x2="114.9164" y2="532.8541" gradientTransform="matrix(1 0 0 1 0 -260)">
		<stop  offset="1.000000e-03" style="stop-color:#CCCCCC"/>
		<stop  offset="0.921" style="stop-color:#808080"/>
	</linearGradient>
	<path class="st5" d="M115,281.1H90.7c-1,0-2,0-3-0.1c-4.2-0.3-8.3-1.3-12.2-3.1c3-7.8,10.4-13.3,19.3-13.3
		C104.8,264.6,113.1,271.7,115,281.1z"/>
	<path class="st4" d="M214.1,207h-49.4v37h-33.5c-4.3,3.5-9.6,5.4-15.2,5.4H94c-5.5,0-10.9-1.9-15.2-5.4H53.6v-32.9
		c0-1,0-2.1,0.1-3.1c0-0.3,0.1-0.7,0.1-1c2-18.5,17.7-32.9,36.8-32.9H214c9.1,0,16.5,7.4,16.5,16.5c0,4.5-1.9,8.6-4.9,11.6
		c-1.6,1.6-3.3,2.8-5.3,3.5C218.5,206.5,216.2,207,214.1,207l27,34.8L214.1,207z"/>
	<path class="st6" d="M242.4,244h-77.7v-37h49.4l27,34.8C241.7,242.4,242.2,243.2,242.4,244z"/>
	<path class="st7" d="M164.7,207v37H53.6v-32.9c0-1,0-2.1,0.1-3.1c0-0.3,0.1-0.7,0.1-1H164.7L164.7,207z M241.2,241.8l-27-34.8l0,0
		L241.2,241.8z"/>
	<path class="st3" d="M164.7,207v37H53.6v-32.9c0-1,0-2.1,0.1-3.1c0-0.3,0.1-0.7,0.1-1H164.7L164.7,207z"/>
	<path class="st2" d="M140,225.5c0,6.6-2.7,12.6-7,17c-0.6,0.6-1.1,1.1-1.8,1.6c-4.3,3.5-9.6,5.4-15.2,5.4H94
		c-5.5,0-10.9-1.9-15.2-5.4c-5.3-4.4-8.8-11.1-8.8-18.5c0-3.5,0.8-7.1,2.3-10.3c1.6-3.2,3.8-6,6.4-8.3c4.3-3.5,9.6-5.4,15.2-5.4h22
		c5.5,0,10.9,1.9,15.2,5.4c2.8,2.2,5,5.1,6.4,8.3C139.2,218.5,140,221.9,140,225.5z"/>
	<path class="st6" d="M77.4,225.5c0-9.2,7.4-16.6,16.6-16.6h22c9.2,0,16.6,7.4,16.6,16.6s-7.4,16.6-16.6,16.6H94
		C84.8,242.1,77.4,234.7,77.4,225.5z"/>
	<path class="st0" d="M53.6,250.4c0,1.7-0.7,3.3-1.9,4.5c-1.2,1.2-2.9,1.9-4.5,1.9s-3.3-0.7-4.5-1.9c-1.2-1.2-1.9-2.9-1.9-4.5v-44.8
		c0-1.7,0.7-3.3,1.9-4.5c1.2-1.2,2.9-1.9,4.5-1.9s3.3,0.7,4.5,1.9c1.2,1.2,1.9,2.9,1.9,4.5V250.4z"/>
	<path class="st1" d="M209.7,281.9c0-0.2-0.1-0.6-0.1-0.8c-1-5-3.8-9.3-7.9-12.3c-3.5-2.7-7.9-4.1-12.3-4.1
		c-10,0-18.3,7.1-20.2,16.5c-0.2,1.3-0.4,2.8-0.4,4.1c0,11.4,9.2,20.6,20.6,20.6c11.4,0,20.6-9.2,20.6-20.6
		C210,284.1,209.9,283,209.7,281.9z M115,281.1c-1.9-9.4-10.2-16.5-20.2-16.5c-8.8,0-16.3,5.5-19.3,13.3c-0.9,2.3-1.3,4.9-1.3,7.3
		c0,11.4,9.2,20.6,20.6,20.6s20.6-9.2,20.6-20.6C115.4,283.8,115.2,282.4,115,281.1z"/>
	<path class="st4" d="M94.8,293.4c-2.2,0-4.3-0.9-5.9-2.4c-1.6-1.6-2.4-3.7-2.4-5.9s0.9-4.3,2.4-5.9s3.7-2.4,5.9-2.4
		c1.1,0,2.2,0.2,3.2,0.6c1,0.4,1.9,1,2.7,1.8c0.8,0.8,1.4,1.7,1.8,2.7c0.4,1,0.7,2.1,0.7,3.2c0,1.1-0.2,2.2-0.7,3.2
		c-0.4,1-1,1.9-1.8,2.7c-0.8,0.8-1.7,1.3-2.7,1.8C96.9,293.2,95.9,293.4,94.8,293.4z M197.6,285.2c0-2.2-0.9-4.3-2.4-5.9
		c-1.6-1.6-3.7-2.4-5.9-2.4s-4.3,0.9-5.9,2.4c-1.6,1.6-2.4,3.7-2.4,5.9c0,2.2,0.9,4.3,2.4,5.9c1.6,1.6,3.7,2.4,5.9,2.4
		s4.3-0.9,5.9-2.4C196.7,289.4,197.6,287.3,197.6,285.2z"/>
</g>
</svg>
