<?xml version="1.0" encoding="utf-8"?>
<!-- Generator: Adobe Illustrator 27.0.0, SVG Export Plug-In . SVG Version: 6.00 Build 0)  -->
<svg version="1.1" id="Layer_1" xmlns="http://www.w3.org/2000/svg" xmlns:xlink="http://www.w3.org/1999/xlink" x="0px" y="0px"
	 width="360px" height="360px" viewBox="0 0 360 360" style="enable-background:new 0 0 360 360;" xml:space="preserve">
<path style="fill:#282A73;stroke:#000000;stroke-width:2;" d="M9,23.5V230h163V23.5H9z M163,202.5H22V45h141V202.5z"/>
<g>
	<polygon style="fill:#282A73;stroke:#000000;stroke-width:2;" points="264.5,277.5 264.5,292.5 46.5,292.5 46.5,353.5 305.5,353.5 
		305.5,277.5 	"/>
	<polygon style="fill:#282A73;stroke:#000000;stroke-width:2;" points="264.5,277.5 264.5,250.5 20.5,250.5 20.5,292.5 46.5,292.5 
		46.5,277.5 	"/>
</g>
<g>
	<path style="fill:#E76F24;" d="M306.9,214.7l-2.6-22.9h-1.1c-10.1,14.3-29.7,27-55.6,27c-36.8,0-55.6-25.9-55.6-52.2
		c0-44,39.1-68,109.3-67.6v-3.8c0-15-4.1-42.1-41.3-42.1c-16.9,0-34.6,5.3-47.3,13.5l-7.5-21.8c15-9.8,36.8-16.2,59.7-16.2
		c55.6,0,69.1,37.9,69.1,74.4v68c0,15.8,0.8,31.2,3,43.6H306.9z M302.1,121.9c-36.1-0.8-77,5.6-77,40.9c0,21.4,14.3,31.6,31.2,31.6
		c23.7,0,38.7-15,44-30.4c1.1-3.4,1.9-7.1,1.9-10.5V121.9z"/>
</g>
</svg>
