<?xml version="1.0" encoding="utf-8"?>
<!-- Generator: Adobe Illustrator 27.0.0, SVG Export Plug-In . SVG Version: 6.00 Build 0)  -->
<svg version="1.1" id="Layer_1" xmlns="http://www.w3.org/2000/svg" xmlns:xlink="http://www.w3.org/1999/xlink" x="0px" y="0px"
	 viewBox="0 0 360 360" style="enable-background:new 0 0 360 360;" xml:space="preserve">
<style type="text/css">
	.st0{fill:#8EDDC0;}
	.st1{fill:#00A888;}
	.st2{fill:#8FF7E3;}
	.st3{fill:#009E80;}
	.st4{fill:#00DDB3;}
</style>
<g>
	<circle class="st0" cx="167.9" cy="192.5" r="136.7"/>
	<path class="st1" d="M192.8,170.8c6.3,6.3,9.9,14.8,9.9,23.8c0,6.7-1.9,13.1-5.7,18.6s-8.9,9.9-15.1,12.5
		c-6.2,2.5-12.8,3.3-19.4,1.9c-6.5-1.4-12.6-4.4-17.2-9.2c-4.7-4.7-7.9-10.7-9.2-17.2c-1.4-6.5-0.6-13.2,1.9-19.4
		c2.5-6.2,6.9-11.4,12.5-15.1c5.5-3.8,12.1-5.7,18.6-5.7C177.9,160.9,186.5,164.4,192.8,170.8z"/>
	<path class="st2" d="M202.6,194.5c0-8.9-3.5-17.5-9.9-23.8c-6.3-6.3-14.8-9.9-23.8-9.9c-6.7,0-13.1,1.9-18.6,5.7
		c-5.5,3.8-9.9,8.9-12.5,15.1c-2.5,6.2-3.3,12.8-1.9,19.4c1.4,6.5,4.4,12.6,9.2,17.2c4.7,4.7,10.7,7.9,17.2,9.2
		c6.5,1.4,13.2,0.6,19.4-1.9c6.2-2.5,11.4-6.9,15.1-12.5C200.7,207.7,202.6,201.2,202.6,194.5z M227.9,135.7
		c13.6,13.8,22,32.2,23.8,51.6c1.6,19.4-3.4,38.7-14.3,54.8c-10.9,16.1-27.2,27.8-45.9,33.2c-18.6,5.4-38.6,4.3-56.6-3.5
		c-18-7.7-32.5-21.3-41.5-38.5s-11.7-37.1-7.5-56.2c4.2-19,14.6-36.1,29.7-48.2c15.2-12.3,34.2-18.7,53.6-18.4
		C191.1,110.7,212.4,119.8,227.9,135.7z"/>
</g>
<g>
	<path class="st3" d="M291.3,15l9.3,40.4l-34.1,34.1l-15.6,15.6L243,70.7l-1.4-5.9L291.3,15z"/>
	<path class="st3" d="M300.6,55.4l40.4,9.3l-49.7,49.7l-5.9-1.4l-34.5-7.9l15.6-15.6L300.6,55.4z"/>
	<path class="st4" d="M167.1,197.6c-1.1,0-2.3-0.3-3.4-0.6c-1-0.5-2-1.1-2.8-2c-0.9-0.8-1.5-1.8-2-2.8c-0.5-1-0.8-2.1-0.8-3.4
		c0-1.3,0.3-2.3,0.8-3.4c0.5-1,1.1-2,2-2.8L308.9,34.9c0.8-0.8,1.8-1.5,2.8-1.9s2.1-0.6,3.3-0.6c1.1,0,2.3,0.3,3.3,0.6
		s2,1.1,2.8,1.9c0.8,0.8,1.5,1.8,1.9,2.8c0.4,1,0.6,2.1,0.6,3.3c0,1.1-0.3,2.3-0.6,3.3s-1.1,2-1.9,2.8L173.3,195
		c-0.8,0.9-1.8,1.5-2.8,2C169.4,197.5,168.3,197.6,167.1,197.6z"/>
</g>
</svg>
