<?xml version="1.0" encoding="utf-8"?>
<!-- Generator: Adobe Illustrator 27.0.0, SVG Export Plug-In . SVG Version: 6.00 Build 0)  -->
<svg version="1.1" id="Layer_1" xmlns="http://www.w3.org/2000/svg" xmlns:xlink="http://www.w3.org/1999/xlink" x="0px" y="0px"
	 width="360px" height="360px" viewBox="0 0 360 360" style="enable-background:new 0 0 360 360;" xml:space="preserve">
<path style="fill:#3A86FF;" d="M329,184.2c-8.6-14.3-24.6-24-42.8-24c-20.3,0-37.8,11.9-45.5,28.8l-0.1-0.2
	c-2-66.9-23.4-129.5-50.9-141.5C264.8,52,324.7,110.9,329,184.2z"/>
<path style="fill:#B0E8FD;" d="M180.4,19.1c-4.2,0-7.5,3.3-7.5,7.5V151v10.1v138.2c0,7.3-2.9,13.7-7.6,18.5
	c-4.8,4.8-11.2,7.6-18.5,7.6s-13.7-2.9-18.5-7.6c-4.8-4.8-7.6-11.2-7.6-18.5c0-4.2-3.3-7.5-7.5-7.5s-7.5,3.3-7.5,7.5
	c0,22.6,18.4,41.1,41.1,41.1c22.6,0,41.1-18.4,41.1-41.1V161.1V151V26.6C187.9,22.5,184.5,19.1,180.4,19.1z"/>
<path style="fill:#3A86FF;" d="M170.3,47.4C142.8,59.5,121.5,122,119.4,189l-0.1,0.1c-7.7-16.9-25.2-28.8-45.4-28.8
	c-18.4,0-34.2,9.7-42.9,24C35.3,110.9,95.2,52,170.3,47.4z"/>
<path style="fill:#0058E3;" d="M189.7,47.4c27.5,12.2,48.9,74.6,50.9,141.5c-10.4-22.6-33.5-38.4-60.6-38.4s-50.3,15.9-60.6,38.5
	c2-67,23.4-129.5,50.9-141.6c3.2-0.2,6.4-0.4,9.7-0.4C183.2,47,186.4,47.1,189.7,47.4z"/>
</svg>
