<?xml version="1.0" encoding="utf-8"?>
<!-- Generator: Adobe Illustrator 24.0.1, SVG Export Plug-In . SVG Version: 6.00 Build 0)  -->
<svg version="1.1" id="Layer_1" xmlns="http://www.w3.org/2000/svg" xmlns:xlink="http://www.w3.org/1999/xlink" x="0px" y="0px"
	 viewBox="0 0 64 64" style="enable-background:new 0 0 64 64;" xml:space="preserve">
<style type="text/css">
	.st0{fill-rule:evenodd;clip-rule:evenodd;fill:#BD7575;}
	.st1{fill-rule:evenodd;clip-rule:evenodd;fill:#80D25B;}
	.st2{fill-rule:evenodd;clip-rule:evenodd;fill:#9C4D4D;}
	.st3{fill-rule:evenodd;clip-rule:evenodd;fill:#979797;}
</style>
<path class="st0" d="M48,35c2.8,0,5-2.2,5-5s-2.2-5-5-5c-0.6-2.3-2.6-4-5-4c-0.6-2.3-2.6-4-5-4c-0.1-2.7-2.3-4.8-5-4.8
	s-4.9,2.1-5,4.8c-2.4,0-4.4,1.7-4.9,4c-2.5,0-4.5,1.7-5,4c-2.9,0-5.1,2.2-5.1,5s2.2,5,5,5H48z"/>
<path class="st1" d="M7,30h50l3,19H4L7,30z"/>
<path class="st2" d="M32,37c1.7,0,3,1.3,3,3s-1.3,3-3,3c-1.7,0-3-1.3-3-3S30.3,37,32,37z"/>
<path class="st2" d="M28.5,34c0.8,0,1.5,0.7,1.5,1.5S29.3,37,28.5,37S27,36.3,27,35.5S27.7,34,28.5,34z"/>
<path class="st2" d="M32.5,33c0.8,0,1.5,0.7,1.5,1.5S33.3,36,32.5,36S31,35.3,31,34.5S31.7,33,32.5,33z"/>
<path class="st2" d="M36.5,35c0.8,0,1.5,0.7,1.5,1.5S37.3,38,36.5,38S35,37.3,35,36.5S35.7,35,36.5,35z"/>
<path class="st3" d="M0,45h64v6H0V45z"/>
</svg>
